<!-- Authored isometric source asset. Swap with a Figma/Spline render of the same layer + canvas (1440x900) to upgrade fidelity with no component change. -->
<svg xmlns="http://www.w3.org/2000/svg" width="1440" height="900" viewBox="0 0 1440 900" fill="none">
<line x1="380" y1="468.7" x2="583.2" y2="424.7" stroke="rgba(232,236,240,0.62)" stroke-width="2" opacity="1" stroke-linecap="round"/><circle cx="481.6" cy="446.7" r="2.6" fill="rgba(232,236,240,0.7)"/><circle cx="481.6" cy="446.7" r="5.5" fill="none" stroke="rgba(232,236,240,0.7)" stroke-width="1" opacity="0.35"/><polyline points="577.2,421.1 583.2,424.7 577.2,428.3" fill="none" stroke="rgba(232,236,240,0.62)" stroke-width="2" stroke-linecap="round" stroke-linejoin="round"/><line x1="708" y1="480.8" x2="820" y2="460" stroke="rgba(232,236,240,0.62)" stroke-width="2" opacity="1" stroke-linecap="round"/><circle cx="764" cy="470.4" r="2.6" fill="rgba(232,236,240,0.7)"/><circle cx="764" cy="470.4" r="5.5" fill="none" stroke="rgba(232,236,240,0.7)" stroke-width="1" opacity="0.35"/><polyline points="814,456.4 820,460 814,463.6" fill="none" stroke="rgba(232,236,240,0.62)" stroke-width="2" stroke-linecap="round" stroke-linejoin="round"/><line x1="640.8" y1="448.5" x2="573.6" y2="455.5" stroke="#4d6088" stroke-width="1.8" stroke-dasharray="1 5" opacity="0.9" stroke-linecap="round"/><circle cx="607.2" cy="452" r="2.6" fill="#6479a0"/><circle cx="607.2" cy="452" r="5.5" fill="none" stroke="#6479a0" stroke-width="1" opacity="0.35"/><polyline points="567.6,451.9 573.6,455.5 567.6,459.1" fill="none" stroke="#6479a0" stroke-width="2" stroke-linecap="round" stroke-linejoin="round"/><line x1="504.8" y1="524" x2="402.4" y2="464.5" stroke="#4d6088" stroke-width="1.6" stroke-dasharray="1 5" opacity="0.75" stroke-linecap="round"/><polyline points="396.4,460.9 402.4,464.5 396.4,468.1" fill="none" stroke="#6479a0" stroke-width="2" stroke-linecap="round" stroke-linejoin="round"/>
</svg>
