<!-- Authored isometric source asset. Swap with a Figma/Spline render of the same layer + canvas (1440x900) to upgrade fidelity with no component change. -->
<svg xmlns="http://www.w3.org/2000/svg" width="1440" height="900" viewBox="0 0 1440 900" fill="none">
<defs><radialGradient id="ls" cx="50%" cy="50%" r="50%"><stop offset="0%" stop-color="#000" stop-opacity="0.55"/><stop offset="70%" stop-color="#000" stop-opacity="0.22"/><stop offset="100%" stop-color="#000" stop-opacity="0"/></radialGradient></defs>
<ellipse cx="402.4" cy="527.2" rx="64" ry="26" fill="url(#ls)" opacity="0.5"/><path d="M334.5,464.5 L334.5,521.2 A67.9,33.9 0 0 0 470.3,521.2 L470.3,464.5 A67.9,33.9 0 0 1 334.5,464.5 Z" fill="#828a95" stroke="rgba(9,11,15,0.55)" stroke-width="1"/><path d="M334.5,464.5 L334.5,521.2 A67.9,33.9 0 0 0 402.4,555.1 L402.4,498.4 A67.9,33.9 0 0 1 334.5,464.5 Z" fill="#aeb6c1" opacity="0.9"/><path d="M334.5,507 A67.9,33.9 0 0 0 470.3,507" fill="none" stroke="#4d6088" stroke-width="1" opacity="0.5"/><path d="M334.5,492.9 A67.9,33.9 0 0 0 470.3,492.9" fill="none" stroke="#4d6088" stroke-width="1" opacity="0.5"/><path d="M334.5,478.7 A67.9,33.9 0 0 0 470.3,478.7" fill="none" stroke="#4d6088" stroke-width="1" opacity="0.5"/><ellipse cx="402.4" cy="464.5" rx="67.9" ry="33.9" fill="#dde2e9" stroke="rgba(9,11,15,0.55)" stroke-width="1"/><ellipse cx="402.4" cy="464.5" rx="42.1" ry="21" fill="none" stroke="#6479a0" stroke-width="1.2" opacity="0.7"/><ellipse cx="402.4" cy="464.5" rx="19" ry="9.5" fill="#3a4658" stroke="#6479a0" stroke-width="1" opacity="0.85"/>
</svg>
