<!-- Authored translucent-glass isometric source asset. Swap with a Spline/Figma render of the same layer at 1440x900 to upgrade fidelity; the React wrapper treats each layer as opaque. -->
<svg xmlns="http://www.w3.org/2000/svg" width="1440" height="900" viewBox="0 0 1440 900" fill="none"><defs>
<filter id="frost" x="-40%" y="-40%" width="180%" height="180%"><feGaussianBlur stdDeviation="9"/></filter>
<filter id="soft" x="-60%" y="-60%" width="220%" height="220%"><feGaussianBlur stdDeviation="16"/></filter>
<radialGradient id="shadow" cx="50%" cy="50%" r="50%"><stop offset="0%" stop-color="#000" stop-opacity="0.5"/><stop offset="70%" stop-color="#000" stop-opacity="0.18"/><stop offset="100%" stop-color="#000" stop-opacity="0"/></radialGradient>
<radialGradient id="steelcore" cx="50%" cy="42%" r="60%"><stop offset="0%" stop-color="#6f8bbd" stop-opacity="0.95"/><stop offset="45%" stop-color="#41557a" stop-opacity="0.8"/><stop offset="100%" stop-color="#2a3550" stop-opacity="0.2"/></radialGradient>
<radialGradient id="steelhalo" cx="50%" cy="50%" r="50%"><stop offset="0%" stop-color="#4a6090" stop-opacity="0.5"/><stop offset="100%" stop-color="#4a6090" stop-opacity="0"/></radialGradient>
<linearGradient id="gtop" x1="0" y1="0" x2="0.5" y2="1"><stop offset="0" stop-color="rgba(255,255,255,0.34)"/><stop offset="1" stop-color="rgba(255,255,255,0.08)"/></linearGradient></defs><ellipse cx="293.2" cy="525" rx="60" ry="25" fill="url(#shadow)" opacity="0.45"/><ellipse cx="293.2" cy="514" rx="58" ry="36" fill="rgba(224,232,246,0.22)" filter="url(#frost)"/><polygon points="189.8,511.6 295.4,564.4 295.4,569.7 189.8,516.9" fill="rgba(226,232,242,0.11)" stroke="rgba(255,255,255,0.1)" stroke-width="1" stroke-linejoin="round"/><polygon points="396.6,513.8 295.4,564.4 295.4,569.7 396.6,519.1" fill="rgba(226,232,242,0.07)" stroke="rgba(255,255,255,0.07)" stroke-width="1" stroke-linejoin="round"/><polygon points="291,461 396.6,513.8 295.4,564.4 189.8,511.6" fill="rgba(226,232,242,0.18)" stroke="rgba(255,255,255,0.13)" stroke-width="1" stroke-linejoin="round"/><polyline points="189.8,511.6 291,461 396.6,513.8" fill="none" stroke="rgba(255,255,255,0.45)" stroke-width="1.2"/><line x1="295.4" y1="564.4" x2="295.4" y2="569.7" stroke="rgba(255,255,255,0.18)" stroke-width="1"/><polygon points="189.8,501.5 295.4,554.3 295.4,559.6 189.8,506.8" fill="rgba(226,232,242,0.11)" stroke="rgba(255,255,255,0.1)" stroke-width="1" stroke-linejoin="round"/><polygon points="396.6,503.7 295.4,554.3 295.4,559.6 396.6,509" fill="rgba(226,232,242,0.07)" stroke="rgba(255,255,255,0.07)" stroke-width="1" stroke-linejoin="round"/><polygon points="291,450.9 396.6,503.7 295.4,554.3 189.8,501.5" fill="rgba(226,232,242,0.18)" stroke="rgba(255,255,255,0.13)" stroke-width="1" stroke-linejoin="round"/><polyline points="189.8,501.5 291,450.9 396.6,503.7" fill="none" stroke="rgba(255,255,255,0.45)" stroke-width="1.2"/><line x1="295.4" y1="554.3" x2="295.4" y2="559.6" stroke="rgba(255,255,255,0.18)" stroke-width="1"/><polygon points="189.8,491.5 295.4,544.3 295.4,549.5 189.8,496.7" fill="rgba(226,232,242,0.11)" stroke="rgba(255,255,255,0.1)" stroke-width="1" stroke-linejoin="round"/><polygon points="396.6,493.7 295.4,544.3 295.4,549.5 396.6,498.9" fill="rgba(226,232,242,0.07)" stroke="rgba(255,255,255,0.07)" stroke-width="1" stroke-linejoin="round"/><polygon points="291,440.9 396.6,493.7 295.4,544.3 189.8,491.5" fill="rgba(226,232,242,0.18)" stroke="rgba(255,255,255,0.13)" stroke-width="1" stroke-linejoin="round"/><polyline points="189.8,491.5 291,440.9 396.6,493.7" fill="none" stroke="rgba(255,255,255,0.45)" stroke-width="1.2"/><line x1="295.4" y1="544.3" x2="295.4" y2="549.5" stroke="rgba(255,255,255,0.18)" stroke-width="1"/><polygon points="189.8,481.4 295.4,534.2 295.4,539.5 189.8,486.7" fill="rgba(226,232,242,0.11)" stroke="rgba(255,255,255,0.1)" stroke-width="1" stroke-linejoin="round"/><polygon points="396.6,483.6 295.4,534.2 295.4,539.5 396.6,488.9" fill="rgba(226,232,242,0.07)" stroke="rgba(255,255,255,0.07)" stroke-width="1" stroke-linejoin="round"/><polygon points="291,430.8 396.6,483.6 295.4,534.2 189.8,481.4" fill="rgba(226,232,242,0.18)" stroke="rgba(255,255,255,0.13)" stroke-width="1" stroke-linejoin="round"/><polyline points="189.8,481.4 291,430.8 396.6,483.6" fill="none" stroke="rgba(255,255,255,0.45)" stroke-width="1.2"/><line x1="295.4" y1="534.2" x2="295.4" y2="539.5" stroke="rgba(255,255,255,0.18)" stroke-width="1"/><polygon points="189.8,471.3 295.4,524.1 295.4,529.4 189.8,476.6" fill="rgba(226,232,242,0.11)" stroke="rgba(255,255,255,0.1)" stroke-width="1" stroke-linejoin="round"/><polygon points="396.6,473.5 295.4,524.1 295.4,529.4 396.6,478.8" fill="rgba(226,232,242,0.07)" stroke="rgba(255,255,255,0.07)" stroke-width="1" stroke-linejoin="round"/><polygon points="291,420.7 396.6,473.5 295.4,524.1 189.8,471.3" fill="rgba(226,232,242,0.18)" stroke="rgba(255,255,255,0.13)" stroke-width="1" stroke-linejoin="round"/><polyline points="189.8,471.3 291,420.7 396.6,473.5" fill="none" stroke="rgba(255,255,255,0.45)" stroke-width="1.2"/><line x1="295.4" y1="524.1" x2="295.4" y2="529.4" stroke="rgba(255,255,255,0.18)" stroke-width="1"/><polygon points="189.8,461.2 295.4,514 295.4,519.3 189.8,466.5" fill="rgba(74,96,140,0.3)" stroke="rgba(255,255,255,0.1)" stroke-width="1" stroke-linejoin="round"/><polygon points="396.6,463.4 295.4,514 295.4,519.3 396.6,468.7" fill="rgba(74,96,140,0.2)" stroke="rgba(255,255,255,0.07)" stroke-width="1" stroke-linejoin="round"/><polygon points="291,410.6 396.6,463.4 295.4,514 189.8,461.2" fill="rgba(74,96,140,0.46)" stroke="rgba(255,255,255,0.13)" stroke-width="1" stroke-linejoin="round"/><polyline points="189.8,461.2 291,410.6 396.6,463.4" fill="none" stroke="rgba(255,255,255,0.45)" stroke-width="1.2"/><line x1="295.4" y1="514" x2="295.4" y2="519.3" stroke="rgba(255,255,255,0.18)" stroke-width="1"/><polygon points="189.8,451.1 295.4,503.9 295.4,509.2 189.8,456.4" fill="rgba(74,96,140,0.3)" stroke="rgba(255,255,255,0.1)" stroke-width="1" stroke-linejoin="round"/><polygon points="396.6,453.3 295.4,503.9 295.4,509.2 396.6,458.6" fill="rgba(74,96,140,0.2)" stroke="rgba(255,255,255,0.07)" stroke-width="1" stroke-linejoin="round"/><polygon points="291,400.5 396.6,453.3 295.4,503.9 189.8,451.1" fill="rgba(74,96,140,0.46)" stroke="rgba(255,255,255,0.13)" stroke-width="1" stroke-linejoin="round"/><polyline points="189.8,451.1 291,400.5 396.6,453.3" fill="none" stroke="rgba(255,255,255,0.45)" stroke-width="1.2"/><line x1="295.4" y1="503.9" x2="295.4" y2="509.2" stroke="rgba(255,255,255,0.18)" stroke-width="1"/></svg>
