<!-- Authored translucent-glass isometric source asset. Swap with a Spline/Figma render of the same layer at 1440x900 to upgrade fidelity; the React wrapper treats each layer as opaque. -->
<svg xmlns="http://www.w3.org/2000/svg" width="1440" height="900" viewBox="0 0 1440 900" fill="none"><defs>
<filter id="frost" x="-40%" y="-40%" width="180%" height="180%"><feGaussianBlur stdDeviation="9"/></filter>
<filter id="soft" x="-60%" y="-60%" width="220%" height="220%"><feGaussianBlur stdDeviation="16"/></filter>
<radialGradient id="shadow" cx="50%" cy="50%" r="50%"><stop offset="0%" stop-color="#000" stop-opacity="0.5"/><stop offset="70%" stop-color="#000" stop-opacity="0.18"/><stop offset="100%" stop-color="#000" stop-opacity="0"/></radialGradient>
<radialGradient id="steelcore" cx="50%" cy="42%" r="60%"><stop offset="0%" stop-color="#6f8bbd" stop-opacity="0.95"/><stop offset="45%" stop-color="#41557a" stop-opacity="0.8"/><stop offset="100%" stop-color="#2a3550" stop-opacity="0.2"/></radialGradient>
<radialGradient id="steelhalo" cx="50%" cy="50%" r="50%"><stop offset="0%" stop-color="#4a6090" stop-opacity="0.5"/><stop offset="100%" stop-color="#4a6090" stop-opacity="0"/></radialGradient>
<linearGradient id="gtop" x1="0" y1="0" x2="0.5" y2="1"><stop offset="0" stop-color="rgba(255,255,255,0.34)"/><stop offset="1" stop-color="rgba(255,255,255,0.08)"/></linearGradient></defs><ellipse cx="566" cy="532" rx="118" ry="44" fill="url(#shadow)" opacity="0.6"/><ellipse cx="566" cy="484" rx="200" ry="108" fill="url(#steelhalo)" opacity="0.8"/><polygon points="359.2,492.6 588,607 588,621.4 359.2,507" fill="rgba(226,232,242,0.07)" stroke="rgba(255,255,255,0.1)" stroke-width="1" stroke-linejoin="round"/><polygon points="772.8,514.6 588,607 588,621.4 772.8,529" fill="rgba(226,232,242,0.05)" stroke="rgba(255,255,255,0.07)" stroke-width="1" stroke-linejoin="round"/><polygon points="544,400.2 772.8,514.6 588,607 359.2,492.6" fill="rgba(226,232,242,0.1)" stroke="rgba(255,255,255,0.13)" stroke-width="1" stroke-linejoin="round"/><polyline points="359.2,492.6 544,400.2 772.8,514.6" fill="none" stroke="rgba(255,255,255,0.3)" stroke-width="1.2"/><line x1="588" y1="607" x2="588" y2="621.4" stroke="rgba(255,255,255,0.18)" stroke-width="1"/><ellipse cx="566" cy="422" rx="86" ry="46" fill="url(#steelcore)"/><polygon points="381.2,411 588,514.4 588,596 381.2,492.6" fill="rgba(226,232,242,0.13)" stroke="rgba(255,255,255,0.1)" stroke-width="1" stroke-linejoin="round"/><polygon points="750.8,433 588,514.4 588,596 750.8,514.6" fill="rgba(226,232,242,0.09)" stroke="rgba(255,255,255,0.07)" stroke-width="1" stroke-linejoin="round"/><polygon points="544,329.6 750.8,433 588,514.4 381.2,411" fill="rgba(226,232,242,0.2)" stroke="rgba(255,255,255,0.13)" stroke-width="1" stroke-linejoin="round"/><polyline points="381.2,411 544,329.6 750.8,433" fill="none" stroke="rgba(255,255,255,0.62)" stroke-width="1.2"/><line x1="588" y1="514.4" x2="588" y2="596" stroke="rgba(255,255,255,0.18)" stroke-width="1"/><polygon points="434,402.4 588,479.4 588,488 434,411" fill="rgba(74,96,140,0.42)" stroke="rgba(255,255,255,0.1)" stroke-width="1" stroke-linejoin="round"/><polygon points="698,424.4 588,479.4 588,488 698,433" fill="rgba(74,96,140,0.3)" stroke="rgba(255,255,255,0.07)" stroke-width="1" stroke-linejoin="round"/><polygon points="544,347.4 698,424.4 588,479.4 434,402.4" fill="rgba(74,96,140,0.62)" stroke="rgba(255,255,255,0.13)" stroke-width="1" stroke-linejoin="round"/><polyline points="434,402.4 544,347.4 698,424.4" fill="none" stroke="rgba(255,255,255,0.6)" stroke-width="1.2"/><line x1="588" y1="479.4" x2="588" y2="488" stroke="rgba(255,255,255,0.18)" stroke-width="1"/><g opacity="0.98"><polygon points="566,398.4 579,412.4 573,412.4 566,404.4 559,412.4 553,412.4" fill="#cdd8ec"/><polygon points="566,412.4 573,419.9 559,419.9" fill="#eaf0fa"/></g></svg>
