<!-- Authored isometric source asset. Swap with a Figma/Spline render of the same layer + canvas (1440x900) to upgrade fidelity with no component change. -->
<svg xmlns="http://www.w3.org/2000/svg" width="1440" height="900" viewBox="0 0 1440 900" fill="none">
<defs><radialGradient id="as" cx="50%" cy="50%" r="50%"><stop offset="0%" stop-color="#000" stop-opacity="0.55"/><stop offset="70%" stop-color="#000" stop-opacity="0.22"/><stop offset="100%" stop-color="#000" stop-opacity="0"/></radialGradient><linearGradient id="g3t" x1="0" y1="0" x2="0.65" y2="1"><stop offset="0" stop-color="#eaeff6"/><stop offset="1" stop-color="#d4d9de"/></linearGradient><linearGradient id="g3l" x1="0" y1="0" x2="0" y2="1"><stop offset="0" stop-color="#b4bcc6"/><stop offset="1" stop-color="#90969e"/></linearGradient><linearGradient id="g3r" x1="0" y1="0" x2="0" y2="1"><stop offset="0" stop-color="#868e99"/><stop offset="1" stop-color="#636971"/></linearGradient><linearGradient id="g4t" x1="0" y1="0" x2="0.65" y2="1"><stop offset="0" stop-color="#5f759c"/><stop offset="1" stop-color="#56698e"/></linearGradient><linearGradient id="g4l" x1="0" y1="0" x2="0" y2="1"><stop offset="0" stop-color="#46587a"/><stop offset="1" stop-color="#384662"/></linearGradient><linearGradient id="g4r" x1="0" y1="0" x2="0" y2="1"><stop offset="0" stop-color="#36455f"/><stop offset="1" stop-color="#283346"/></linearGradient><radialGradient id="halo" cx="50%" cy="50%" r="50%"><stop offset="0%" stop-color="#3a4658" stop-opacity="0.6"/><stop offset="100%" stop-color="#3a4658" stop-opacity="0"/></radialGradient><radialGradient id="auglow" cx="50%" cy="38%" r="62%"><stop offset="0%" stop-color="#9fb2d4" stop-opacity="0.5"/><stop offset="100%" stop-color="#9fb2d4" stop-opacity="0"/></radialGradient></defs>
<ellipse cx="613.6" cy="566.8" rx="104" ry="40" fill="url(#as)" opacity="0.66"/><ellipse cx="613.6" cy="514.8" rx="150" ry="78" fill="url(#halo)" opacity="0.55"/><polygon points="466.4,539.7 629.6,621.3 629.6,628.4 466.4,546.8" fill="url(#g5l)" stroke="rgba(9,11,15,0.55)" stroke-width="1" stroke-linejoin="round"/><polygon points="760.8,555.7 629.6,621.3 629.6,628.4 760.8,562.8" fill="url(#g5r)" stroke="rgba(9,11,15,0.55)" stroke-width="1" stroke-linejoin="round"/><polygon points="597.6,474.1 760.8,555.7 629.6,621.3 466.4,539.7" fill="url(#g5t)" stroke="rgba(9,11,15,0.55)" stroke-width="1" stroke-linejoin="round"/><polygon points="485.6,474.6 629.6,546.6 629.6,611.7 485.6,539.7" fill="url(#g3l)" stroke="rgba(9,11,15,0.55)" stroke-width="1" stroke-linejoin="round"/><polygon points="741.6,490.6 629.6,546.6 629.6,611.7 741.6,555.7" fill="url(#g3r)" stroke="rgba(9,11,15,0.55)" stroke-width="1" stroke-linejoin="round"/><polygon points="597.6,418.6 741.6,490.6 629.6,546.6 485.6,474.6" fill="url(#g3t)" stroke="rgba(9,11,15,0.55)" stroke-width="1" stroke-linejoin="round"/><polyline points="485.6,474.6 597.6,418.6 741.6,490.6" fill="none" stroke="rgba(255,255,255,0.16)" stroke-width="1.1"/><polygon points="520.8,467.4 629.6,521.8 629.6,529 520.8,474.6" fill="url(#g4l)" stroke="rgba(9,11,15,0.55)" stroke-width="1" stroke-linejoin="round"/><polygon points="706.4,483.4 629.6,521.8 629.6,529 706.4,490.6" fill="url(#g4r)" stroke="rgba(9,11,15,0.55)" stroke-width="1" stroke-linejoin="round"/><polygon points="597.6,429 706.4,483.4 629.6,521.8 520.8,467.4" fill="url(#g4t)" stroke="rgba(9,11,15,0.55)" stroke-width="1" stroke-linejoin="round"/><polyline points="520.8,467.4 597.6,429 706.4,483.4" fill="none" stroke="rgba(255,255,255,0.16)" stroke-width="1.1"/><polygon points="597.6,429 706.4,483.4 629.6,521.8 520.8,467.4" fill="url(#auglow)"/><polygon points="597.6,429 706.4,483.4 629.6,521.8 520.8,467.4" fill="none" stroke="#7d92b8" stroke-width="1.1" opacity="0.85"/><g opacity="0.98"><polygon points="613.6,461.4 625.6,474.4 620.1,474.4 613.6,466.9 607.1,474.4 601.6,474.4" fill="#aebbd2"/><polygon points="613.6,474.4 620.1,481.4 607.1,481.4" fill="#d7dfec"/></g><line x1="735.8" y1="541.6" x2="635.4" y2="591.8" stroke="rgba(8,10,14,0.42)" stroke-width="1.4"/><line x1="491.4" y1="525.6" x2="623.8" y2="591.8" stroke="rgba(8,10,14,0.3)" stroke-width="1.2"/><line x1="735.8" y1="517.5" x2="635.4" y2="567.8" stroke="rgba(8,10,14,0.42)" stroke-width="1.4"/><line x1="491.4" y1="501.5" x2="623.8" y2="567.8" stroke="rgba(8,10,14,0.3)" stroke-width="1.2"/>
</svg>
