<!-- Authored isometric source asset. Swap with a Figma/Spline render of the same layer + canvas (1440x900) to upgrade fidelity with no component change. -->
<svg xmlns="http://www.w3.org/2000/svg" width="1440" height="900" viewBox="0 0 1440 900" fill="none">
<defs><radialGradient id="gfade" cx="48%" cy="44%" r="60%"><stop offset="0%" stop-color="#fff" stop-opacity="0.9"/><stop offset="70%" stop-color="#fff" stop-opacity="0.25"/><stop offset="100%" stop-color="#fff" stop-opacity="0"/></radialGradient><mask id="gmask"><rect x="0" y="0" width="1440" height="900" fill="url(#gfade)"/></mask></defs>
<g mask="url(#gmask)"><line x1="588" y1="198" x2="108" y2="438" stroke="rgba(255,255,255,0.05)" stroke-width="1"/><line x1="620" y1="214" x2="140" y2="454" stroke="rgba(255,255,255,0.05)" stroke-width="1"/><line x1="652" y1="230" x2="172" y2="470" stroke="rgba(255,255,255,0.05)" stroke-width="1"/><line x1="684" y1="246" x2="204" y2="486" stroke="rgba(255,255,255,0.05)" stroke-width="1"/><line x1="716" y1="262" x2="236" y2="502" stroke="rgba(255,255,255,0.05)" stroke-width="1"/><line x1="748" y1="278" x2="268" y2="518" stroke="rgba(255,255,255,0.05)" stroke-width="1"/><line x1="780" y1="294" x2="300" y2="534" stroke="rgba(255,255,255,0.05)" stroke-width="1"/><line x1="812" y1="310" x2="332" y2="550" stroke="rgba(255,255,255,0.05)" stroke-width="1"/><line x1="844" y1="326" x2="364" y2="566" stroke="rgba(255,255,255,0.05)" stroke-width="1"/><line x1="876" y1="342" x2="396" y2="582" stroke="rgba(255,255,255,0.05)" stroke-width="1"/><line x1="908" y1="358" x2="428" y2="598" stroke="rgba(255,255,255,0.05)" stroke-width="1"/><line x1="940" y1="374" x2="460" y2="614" stroke="rgba(255,255,255,0.05)" stroke-width="1"/><line x1="972" y1="390" x2="492" y2="630" stroke="rgba(255,255,255,0.05)" stroke-width="1"/><line x1="1004" y1="406" x2="524" y2="646" stroke="rgba(255,255,255,0.05)" stroke-width="1"/><line x1="1036" y1="422" x2="556" y2="662" stroke="rgba(255,255,255,0.05)" stroke-width="1"/><line x1="1068" y1="438" x2="588" y2="678" stroke="rgba(255,255,255,0.05)" stroke-width="1"/><line x1="1100" y1="454" x2="620" y2="694" stroke="rgba(255,255,255,0.05)" stroke-width="1"/><line x1="588" y1="198" x2="1100" y2="454" stroke="rgba(255,255,255,0.05)" stroke-width="1"/><line x1="556" y1="214" x2="1068" y2="470" stroke="rgba(255,255,255,0.05)" stroke-width="1"/><line x1="524" y1="230" x2="1036" y2="486" stroke="rgba(255,255,255,0.05)" stroke-width="1"/><line x1="492" y1="246" x2="1004" y2="502" stroke="rgba(255,255,255,0.05)" stroke-width="1"/><line x1="460" y1="262" x2="972" y2="518" stroke="rgba(255,255,255,0.05)" stroke-width="1"/><line x1="428" y1="278" x2="940" y2="534" stroke="rgba(255,255,255,0.05)" stroke-width="1"/><line x1="396" y1="294" x2="908" y2="550" stroke="rgba(255,255,255,0.05)" stroke-width="1"/><line x1="364" y1="310" x2="876" y2="566" stroke="rgba(255,255,255,0.05)" stroke-width="1"/><line x1="332" y1="326" x2="844" y2="582" stroke="rgba(255,255,255,0.05)" stroke-width="1"/><line x1="300" y1="342" x2="812" y2="598" stroke="rgba(255,255,255,0.05)" stroke-width="1"/><line x1="268" y1="358" x2="780" y2="614" stroke="rgba(255,255,255,0.05)" stroke-width="1"/><line x1="236" y1="374" x2="748" y2="630" stroke="rgba(255,255,255,0.05)" stroke-width="1"/><line x1="204" y1="390" x2="716" y2="646" stroke="rgba(255,255,255,0.05)" stroke-width="1"/><line x1="172" y1="406" x2="684" y2="662" stroke="rgba(255,255,255,0.05)" stroke-width="1"/><line x1="140" y1="422" x2="652" y2="678" stroke="rgba(255,255,255,0.05)" stroke-width="1"/><line x1="108" y1="438" x2="620" y2="694" stroke="rgba(255,255,255,0.05)" stroke-width="1"/></g>
</svg>
