<!-- Authored translucent-glass isometric source asset. Swap with a Spline/Figma render of the same layer at 1440x900 to upgrade fidelity; the React wrapper treats each layer as opaque. -->
<svg xmlns="http://www.w3.org/2000/svg" width="1440" height="900" viewBox="0 0 1440 900" fill="none"><defs>
<filter id="frost" x="-40%" y="-40%" width="180%" height="180%"><feGaussianBlur stdDeviation="9"/></filter>
<filter id="soft" x="-60%" y="-60%" width="220%" height="220%"><feGaussianBlur stdDeviation="16"/></filter>
<radialGradient id="shadow" cx="50%" cy="50%" r="50%"><stop offset="0%" stop-color="#000" stop-opacity="0.5"/><stop offset="70%" stop-color="#000" stop-opacity="0.18"/><stop offset="100%" stop-color="#000" stop-opacity="0"/></radialGradient>
<radialGradient id="steelcore" cx="50%" cy="42%" r="60%"><stop offset="0%" stop-color="#6f8bbd" stop-opacity="0.95"/><stop offset="45%" stop-color="#41557a" stop-opacity="0.8"/><stop offset="100%" stop-color="#2a3550" stop-opacity="0.2"/></radialGradient>
<radialGradient id="steelhalo" cx="50%" cy="50%" r="50%"><stop offset="0%" stop-color="#4a6090" stop-opacity="0.5"/><stop offset="100%" stop-color="#4a6090" stop-opacity="0"/></radialGradient>
<linearGradient id="gtop" x1="0" y1="0" x2="0.5" y2="1"><stop offset="0" stop-color="rgba(255,255,255,0.34)"/><stop offset="1" stop-color="rgba(255,255,255,0.08)"/></linearGradient><radialGradient id="gf" cx="48%" cy="46%" r="62%"><stop offset="0%" stop-color="#fff" stop-opacity="0.85"/><stop offset="72%" stop-color="#fff" stop-opacity="0.18"/><stop offset="100%" stop-color="#fff" stop-opacity="0"/></radialGradient><mask id="gm"><rect width="1440" height="900" fill="url(#gf)"/></mask></defs><g mask="url(#gm)"><line x1="594.6" y1="92.3" x2="106.2" y2="336.5" stroke="rgba(150,170,200,0.06)" stroke-width="1"/><line x1="638.6" y1="114.3" x2="150.2" y2="358.5" stroke="rgba(150,170,200,0.06)" stroke-width="1"/><line x1="682.6" y1="136.3" x2="194.2" y2="380.5" stroke="rgba(150,170,200,0.06)" stroke-width="1"/><line x1="726.6" y1="158.3" x2="238.2" y2="402.5" stroke="rgba(150,170,200,0.06)" stroke-width="1"/><line x1="770.6" y1="180.3" x2="282.2" y2="424.5" stroke="rgba(150,170,200,0.06)" stroke-width="1"/><line x1="814.6" y1="202.3" x2="326.2" y2="446.5" stroke="rgba(150,170,200,0.06)" stroke-width="1"/><line x1="858.6" y1="224.3" x2="370.2" y2="468.5" stroke="rgba(150,170,200,0.06)" stroke-width="1"/><line x1="902.6" y1="246.3" x2="414.2" y2="490.5" stroke="rgba(150,170,200,0.06)" stroke-width="1"/><line x1="946.6" y1="268.3" x2="458.2" y2="512.5" stroke="rgba(150,170,200,0.06)" stroke-width="1"/><line x1="990.6" y1="290.3" x2="502.2" y2="534.5" stroke="rgba(150,170,200,0.06)" stroke-width="1"/><line x1="1034.6" y1="312.3" x2="546.2" y2="556.5" stroke="rgba(150,170,200,0.06)" stroke-width="1"/><line x1="594.6" y1="92.3" x2="1018.1" y2="304" stroke="rgba(150,170,200,0.06)" stroke-width="1"/><line x1="550.6" y1="114.3" x2="974.1" y2="326" stroke="rgba(150,170,200,0.06)" stroke-width="1"/><line x1="506.6" y1="136.3" x2="930.1" y2="348" stroke="rgba(150,170,200,0.06)" stroke-width="1"/><line x1="462.6" y1="158.3" x2="886.1" y2="370" stroke="rgba(150,170,200,0.06)" stroke-width="1"/><line x1="418.6" y1="180.3" x2="842.1" y2="392" stroke="rgba(150,170,200,0.06)" stroke-width="1"/><line x1="374.6" y1="202.3" x2="798.1" y2="414.1" stroke="rgba(150,170,200,0.06)" stroke-width="1"/><line x1="330.6" y1="224.3" x2="754.1" y2="436.1" stroke="rgba(150,170,200,0.06)" stroke-width="1"/><line x1="286.6" y1="246.3" x2="710.1" y2="458.1" stroke="rgba(150,170,200,0.06)" stroke-width="1"/><line x1="242.6" y1="268.3" x2="666.1" y2="480.1" stroke="rgba(150,170,200,0.06)" stroke-width="1"/><line x1="198.6" y1="290.3" x2="622.1" y2="502.1" stroke="rgba(150,170,200,0.06)" stroke-width="1"/><line x1="154.6" y1="312.3" x2="578.1" y2="524.1" stroke="rgba(150,170,200,0.06)" stroke-width="1"/><line x1="110.6" y1="334.3" x2="534.1" y2="546.1" stroke="rgba(150,170,200,0.06)" stroke-width="1"/><line x1="555" y1="321.1" x2="137" y2="530.1" stroke="rgba(150,170,200,0.06)" stroke-width="1"/><line x1="599" y1="343.1" x2="181" y2="552.1" stroke="rgba(150,170,200,0.06)" stroke-width="1"/><line x1="643" y1="365.1" x2="225" y2="574.1" stroke="rgba(150,170,200,0.06)" stroke-width="1"/><line x1="687" y1="387.1" x2="269" y2="596.1" stroke="rgba(150,170,200,0.06)" stroke-width="1"/><line x1="731" y1="409.1" x2="313" y2="618.1" stroke="rgba(150,170,200,0.06)" stroke-width="1"/><line x1="775" y1="431.1" x2="357" y2="640.1" stroke="rgba(150,170,200,0.06)" stroke-width="1"/><line x1="819" y1="453.1" x2="401" y2="662.1" stroke="rgba(150,170,200,0.06)" stroke-width="1"/><line x1="863" y1="475.1" x2="445" y2="684.1" stroke="rgba(150,170,200,0.06)" stroke-width="1"/><line x1="907" y1="497.1" x2="489" y2="706.1" stroke="rgba(150,170,200,0.06)" stroke-width="1"/><line x1="951" y1="519.1" x2="533" y2="728.1" stroke="rgba(150,170,200,0.06)" stroke-width="1"/><line x1="995" y1="541.1" x2="577" y2="750.1" stroke="rgba(150,170,200,0.06)" stroke-width="1"/><line x1="555" y1="321.1" x2="973" y2="530.1" stroke="rgba(150,170,200,0.06)" stroke-width="1"/><line x1="511" y1="343.1" x2="929" y2="552.1" stroke="rgba(150,170,200,0.06)" stroke-width="1"/><line x1="467" y1="365.1" x2="885" y2="574.1" stroke="rgba(150,170,200,0.06)" stroke-width="1"/><line x1="423" y1="387.1" x2="841" y2="596.1" stroke="rgba(150,170,200,0.06)" stroke-width="1"/><line x1="379" y1="409.1" x2="797" y2="618.1" stroke="rgba(150,170,200,0.06)" stroke-width="1"/><line x1="335" y1="431.1" x2="753" y2="640.1" stroke="rgba(150,170,200,0.06)" stroke-width="1"/><line x1="291" y1="453.1" x2="709" y2="662.1" stroke="rgba(150,170,200,0.06)" stroke-width="1"/><line x1="247" y1="475.1" x2="665" y2="684.1" stroke="rgba(150,170,200,0.06)" stroke-width="1"/><line x1="203" y1="497.1" x2="621" y2="706.1" stroke="rgba(150,170,200,0.06)" stroke-width="1"/><line x1="159" y1="519.1" x2="577" y2="728.1" stroke="rgba(150,170,200,0.06)" stroke-width="1"/><line x1="115" y1="541.1" x2="533" y2="750.1" stroke="rgba(150,170,200,0.06)" stroke-width="1"/></g></svg>
