<!-- Authored translucent-glass isometric source asset. Swap with a Spline/Figma render of the same layer at 1440x900 to upgrade fidelity; the React wrapper treats each layer as opaque. -->
<svg xmlns="http://www.w3.org/2000/svg" width="1440" height="900" viewBox="0 0 1440 900" fill="none"><defs>
<filter id="frost" x="-40%" y="-40%" width="180%" height="180%"><feGaussianBlur stdDeviation="9"/></filter>
<filter id="soft" x="-60%" y="-60%" width="220%" height="220%"><feGaussianBlur stdDeviation="16"/></filter>
<radialGradient id="shadow" cx="50%" cy="50%" r="50%"><stop offset="0%" stop-color="#000" stop-opacity="0.5"/><stop offset="70%" stop-color="#000" stop-opacity="0.18"/><stop offset="100%" stop-color="#000" stop-opacity="0"/></radialGradient>
<radialGradient id="steelcore" cx="50%" cy="42%" r="60%"><stop offset="0%" stop-color="#6f8bbd" stop-opacity="0.95"/><stop offset="45%" stop-color="#41557a" stop-opacity="0.8"/><stop offset="100%" stop-color="#2a3550" stop-opacity="0.2"/></radialGradient>
<radialGradient id="steelhalo" cx="50%" cy="50%" r="50%"><stop offset="0%" stop-color="#4a6090" stop-opacity="0.5"/><stop offset="100%" stop-color="#4a6090" stop-opacity="0"/></radialGradient>
<linearGradient id="gtop" x1="0" y1="0" x2="0.5" y2="1"><stop offset="0" stop-color="rgba(255,255,255,0.34)"/><stop offset="1" stop-color="rgba(255,255,255,0.08)"/></linearGradient></defs><ellipse cx="821.2" cy="526" rx="56" ry="24" fill="url(#shadow)" opacity="0.45"/><ellipse cx="821.2" cy="510" rx="56" ry="34" fill="rgba(224,232,246,0.22)" filter="url(#frost)"/><polygon points="722.2,454.3 744.2,465.3 744.2,530.1 722.2,519.1" fill="rgba(226,232,242,0.18)" stroke="rgba(255,255,255,0.1)" stroke-width="1" stroke-linejoin="round"/><polygon points="845.4,414.7 744.2,465.3 744.2,530.1 845.4,479.5" fill="rgba(226,232,242,0.12)" stroke="rgba(255,255,255,0.07)" stroke-width="1" stroke-linejoin="round"/><polygon points="823.4,403.7 845.4,414.7 744.2,465.3 722.2,454.3" fill="rgba(226,232,242,0.3)" stroke="rgba(255,255,255,0.13)" stroke-width="1" stroke-linejoin="round"/><polyline points="722.2,454.3 823.4,403.7 845.4,414.7" fill="none" stroke="rgba(255,255,255,0.55)" stroke-width="1.2"/><line x1="744.2" y1="465.3" x2="744.2" y2="530.1" stroke="rgba(255,255,255,0.18)" stroke-width="1"/><polygon points="797,491.7 819,502.7 819,567.5 797,556.5" fill="rgba(226,232,242,0.18)" stroke="rgba(255,255,255,0.1)" stroke-width="1" stroke-linejoin="round"/><polygon points="920.2,452.1 819,502.7 819,567.5 920.2,516.9" fill="rgba(226,232,242,0.12)" stroke="rgba(255,255,255,0.07)" stroke-width="1" stroke-linejoin="round"/><polygon points="898.2,441.1 920.2,452.1 819,502.7 797,491.7" fill="rgba(226,232,242,0.3)" stroke="rgba(255,255,255,0.13)" stroke-width="1" stroke-linejoin="round"/><polyline points="797,491.7 898.2,441.1 920.2,452.1" fill="none" stroke="rgba(255,255,255,0.55)" stroke-width="1.2"/><line x1="819" y1="502.7" x2="819" y2="567.5" stroke="rgba(255,255,255,0.18)" stroke-width="1"/><polygon points="801.4,408.2 898.2,456.6 898.2,477.4 801.4,429" fill="rgba(226,232,242,0.2)" stroke="rgba(255,255,255,0.1)" stroke-width="1" stroke-linejoin="round"/><polygon points="920.2,445.6 898.2,456.6 898.2,477.4 920.2,466.4" fill="rgba(226,232,242,0.13)" stroke="rgba(255,255,255,0.07)" stroke-width="1" stroke-linejoin="round"/><polygon points="823.4,397.2 920.2,445.6 898.2,456.6 801.4,408.2" fill="rgba(226,232,242,0.32)" stroke="rgba(255,255,255,0.13)" stroke-width="1" stroke-linejoin="round"/><polyline points="801.4,408.2 823.4,397.2 920.2,445.6" fill="none" stroke="rgba(255,255,255,0.55)" stroke-width="1.2"/><line x1="898.2" y1="456.6" x2="898.2" y2="477.4" stroke="rgba(255,255,255,0.18)" stroke-width="1"/><line x1="849.8" y1="455.7" x2="849.8" y2="501.3" stroke="rgba(120,140,175,0.7)" stroke-width="2" opacity="0.85"/><line x1="835.5" y1="462.9" x2="835.5" y2="508.4" stroke="rgba(120,140,175,0.7)" stroke-width="2" opacity="0.85"/><line x1="821.2" y1="470" x2="821.2" y2="515.6" stroke="rgba(120,140,175,0.7)" stroke-width="2" opacity="0.85"/><line x1="806.9" y1="477.2" x2="806.9" y2="522.7" stroke="rgba(120,140,175,0.7)" stroke-width="2" opacity="0.85"/><line x1="792.6" y1="484.3" x2="792.6" y2="529.9" stroke="rgba(170,72,69,0.85)" stroke-width="2" opacity="0.85"/></svg>
