<!-- Authored isometric source asset. Swap with a Figma/Spline render of the same layer + canvas (1440x900) to upgrade fidelity with no component change. -->
<svg xmlns="http://www.w3.org/2000/svg" width="1440" height="900" viewBox="0 0 1440 900" fill="none">
<defs><radialGradient id="cs" cx="50%" cy="50%" r="50%"><stop offset="0%" stop-color="#000" stop-opacity="0.55"/><stop offset="70%" stop-color="#000" stop-opacity="0.22"/><stop offset="100%" stop-color="#000" stop-opacity="0"/></radialGradient><linearGradient id="g6t" x1="0" y1="0" x2="0.65" y2="1"><stop offset="0" stop-color="#eaeff6"/><stop offset="1" stop-color="#d4d9de"/></linearGradient><linearGradient id="g6l" x1="0" y1="0" x2="0" y2="1"><stop offset="0" stop-color="#b4bcc6"/><stop offset="1" stop-color="#90969e"/></linearGradient><linearGradient id="g6r" x1="0" y1="0" x2="0" y2="1"><stop offset="0" stop-color="#868e99"/><stop offset="1" stop-color="#636971"/></linearGradient></defs>
<ellipse cx="802.4" cy="609.2" rx="56" ry="24" fill="url(#cs)" opacity="0.55"/><polygon points="735.2,548.7 802.4,582.3 802.4,634.8 735.2,601.2" fill="url(#g6l)" stroke="rgba(9,11,15,0.55)" stroke-width="1" stroke-linejoin="round"/><polygon points="869.6,548.7 802.4,582.3 802.4,634.8 869.6,601.2" fill="url(#g6r)" stroke="rgba(9,11,15,0.55)" stroke-width="1" stroke-linejoin="round"/><polygon points="802.4,515.1 869.6,548.7 802.4,582.3 735.2,548.7" fill="url(#g6t)" stroke="rgba(9,11,15,0.55)" stroke-width="1" stroke-linejoin="round"/><polyline points="735.2,548.7 802.4,515.1 869.6,548.7" fill="none" stroke="rgba(255,255,255,0.16)" stroke-width="1.1"/><line x1="860" y1="561.4" x2="860" y2="598.1" stroke="#6479a0" stroke-width="2" opacity="0.85"/><line x1="844" y1="569.4" x2="844" y2="606.1" stroke="#6479a0" stroke-width="2" opacity="0.85"/><line x1="828" y1="577.4" x2="828" y2="614.1" stroke="#6479a0" stroke-width="2" opacity="0.85"/><line x1="812" y1="585.4" x2="812" y2="622.1" stroke="rgba(155,63,61,0.78)" stroke-width="2" opacity="0.85"/><ellipse cx="802.4" cy="548.7" rx="22.6" ry="11.3" fill="#3a4658" stroke="#6479a0" stroke-width="1.2" opacity="0.9"/>
</svg>
