<!-- Authored isometric source asset. Swap with a Figma/Spline render of the same layer + canvas (1440x900) to upgrade fidelity with no component change. -->
<svg xmlns="http://www.w3.org/2000/svg" width="1440" height="900" viewBox="0 0 1440 900" fill="none">
<polygon points="620,232.4 1132,488.4 664.8,722 152.8,466" fill="rgba(150,170,200,0.018)"/><polygon points="620,232.4 1132,488.4 664.8,722 152.8,466" fill="none" stroke="rgba(170,185,210,0.34)" stroke-width="1.4" stroke-dasharray="5 6" opacity="0.6"/><polyline points="648.8,246.8 620,232.4 591.2,246.8" fill="none" stroke="rgba(170,185,210,0.34)" stroke-width="1.6" opacity="0.8999999999999999"/><polyline points="1103.2,474 1132,488.4 1103.2,502.8" fill="none" stroke="rgba(170,185,210,0.34)" stroke-width="1.6" opacity="0.8999999999999999"/><polyline points="636,707.6 664.8,722 693.6,707.6" fill="none" stroke="rgba(170,185,210,0.34)" stroke-width="1.6" opacity="0.8999999999999999"/><polyline points="181.6,480.4 152.8,466 181.6,451.6" fill="none" stroke="rgba(170,185,210,0.34)" stroke-width="1.6" opacity="0.8999999999999999"/><polygon points="613.6,453.2 901.6,597.2 709.6,693.2 421.6,549.2" fill="rgba(74,91,120,0.05)"/><polygon points="613.6,453.2 901.6,597.2 709.6,693.2 421.6,549.2" fill="none" stroke="#4d6088" stroke-width="1.4" stroke-dasharray="3 6" opacity="0.55"/><polyline points="642.4,467.6 613.6,453.2 584.8,467.6" fill="none" stroke="#4d6088" stroke-width="1.6" opacity="0.8500000000000001"/><polyline points="872.8,582.8 901.6,597.2 872.8,611.6" fill="none" stroke="#4d6088" stroke-width="1.6" opacity="0.8500000000000001"/><polyline points="680.8,678.8 709.6,693.2 738.4,678.8" fill="none" stroke="#4d6088" stroke-width="1.6" opacity="0.8500000000000001"/><polyline points="450.4,563.6 421.6,549.2 450.4,534.8" fill="none" stroke="#4d6088" stroke-width="1.6" opacity="0.8500000000000001"/>
</svg>
