<!-- Authored translucent-glass isometric source asset. Swap with a Spline/Figma render of the same layer at 1440x900 to upgrade fidelity; the React wrapper treats each layer as opaque. -->
<svg xmlns="http://www.w3.org/2000/svg" width="1440" height="900" viewBox="0 0 1440 900" fill="none"><defs>
<filter id="frost" x="-40%" y="-40%" width="180%" height="180%"><feGaussianBlur stdDeviation="9"/></filter>
<filter id="soft" x="-60%" y="-60%" width="220%" height="220%"><feGaussianBlur stdDeviation="16"/></filter>
<radialGradient id="shadow" cx="50%" cy="50%" r="50%"><stop offset="0%" stop-color="#000" stop-opacity="0.5"/><stop offset="70%" stop-color="#000" stop-opacity="0.18"/><stop offset="100%" stop-color="#000" stop-opacity="0"/></radialGradient>
<radialGradient id="steelcore" cx="50%" cy="42%" r="60%"><stop offset="0%" stop-color="#6f8bbd" stop-opacity="0.95"/><stop offset="45%" stop-color="#41557a" stop-opacity="0.8"/><stop offset="100%" stop-color="#2a3550" stop-opacity="0.2"/></radialGradient>
<radialGradient id="steelhalo" cx="50%" cy="50%" r="50%"><stop offset="0%" stop-color="#4a6090" stop-opacity="0.5"/><stop offset="100%" stop-color="#4a6090" stop-opacity="0"/></radialGradient>
<linearGradient id="gtop" x1="0" y1="0" x2="0.5" y2="1"><stop offset="0" stop-color="rgba(255,255,255,0.34)"/><stop offset="1" stop-color="rgba(255,255,255,0.08)"/></linearGradient></defs><polygon points="106.2,329.8 529.7,541.5 529.7,548.3 106.2,336.5" fill="rgba(226,232,242,0.05)" stroke="rgba(255,255,255,0.1)" stroke-width="1" stroke-linejoin="round"/><polygon points="1018.1,297.3 529.7,541.5 529.7,548.3 1018.1,304" fill="rgba(226,232,242,0.035)" stroke="rgba(255,255,255,0.07)" stroke-width="1" stroke-linejoin="round"/><polygon points="594.6,85.6 1018.1,297.3 529.7,541.5 106.2,329.8" fill="rgba(226,232,242,0.085)" stroke="rgba(255,255,255,0.13)" stroke-width="1" stroke-linejoin="round"/><polyline points="106.2,329.8 594.6,85.6 1018.1,297.3" fill="none" stroke="rgba(255,255,255,0.22)" stroke-width="1.2"/><line x1="529.7" y1="541.5" x2="529.7" y2="548.3" stroke="rgba(255,255,255,0.18)" stroke-width="1"/><polygon points="594.6,96.1 996.1,296.8 529.7,530.1 128.2,329.3" fill="none" stroke="rgba(168,186,212,0.6)" stroke-width="1.5" stroke-dasharray="4 7" opacity="0.8"/><circle cx="594.6" cy="96.1" r="2.4" fill="none" stroke="rgba(168,186,212,0.6)" stroke-width="1.2" opacity="0.85"/><circle cx="996.1" cy="296.8" r="2.4" fill="none" stroke="rgba(168,186,212,0.6)" stroke-width="1.2" opacity="0.85"/><circle cx="529.7" cy="530.1" r="2.4" fill="none" stroke="rgba(168,186,212,0.6)" stroke-width="1.2" opacity="0.85"/><circle cx="128.2" cy="329.3" r="2.4" fill="none" stroke="rgba(168,186,212,0.6)" stroke-width="1.2" opacity="0.85"/></svg>
