<!-- Authored isometric source asset. Swap with a Figma/Spline render of the same layer + canvas (1440x900) to upgrade fidelity with no component change. -->
<svg xmlns="http://www.w3.org/2000/svg" width="1440" height="900" viewBox="0 0 1440 900" fill="none">
<defs><radialGradient id="es" cx="50%" cy="50%" r="50%"><stop offset="0%" stop-color="#000" stop-opacity="0.55"/><stop offset="70%" stop-color="#000" stop-opacity="0.22"/><stop offset="100%" stop-color="#000" stop-opacity="0"/></radialGradient><linearGradient id="g2t" x1="0" y1="0" x2="0.65" y2="1"><stop offset="0" stop-color="#d0d6de"/><stop offset="1" stop-color="#bcc2c8"/></linearGradient><linearGradient id="g2l" x1="0" y1="0" x2="0" y2="1"><stop offset="0" stop-color="#979ea8"/><stop offset="1" stop-color="#797e86"/></linearGradient><linearGradient id="g2r" x1="0" y1="0" x2="0" y2="1"><stop offset="0" stop-color="#6b727e"/><stop offset="1" stop-color="#4f545d"/></linearGradient></defs>
<ellipse cx="932" cy="461.2" rx="42" ry="18" fill="url(#es)" opacity="0.55"/><ellipse cx="852" cy="501.2" rx="42" ry="18" fill="url(#es)" opacity="0.55"/><ellipse cx="772" cy="541.2" rx="42" ry="18" fill="url(#es)" opacity="0.55"/><polygon points="876,339.6 924,363.6 924,481.2 876,457.2" fill="url(#g2l)" stroke="rgba(9,11,15,0.55)" stroke-width="1" stroke-linejoin="round"/><polygon points="988,331.6 924,363.6 924,481.2 988,449.2" fill="url(#g2r)" stroke="rgba(9,11,15,0.55)" stroke-width="1" stroke-linejoin="round"/><polygon points="940,307.6 988,331.6 924,363.6 876,339.6" fill="url(#g2t)" stroke="rgba(9,11,15,0.55)" stroke-width="1" stroke-linejoin="round"/><polyline points="876,339.6 940,307.6 988,331.6" fill="none" stroke="rgba(255,255,255,0.16)" stroke-width="1.1"/><line x1="982.2" y1="435.3" x2="929.8" y2="461.5" stroke="rgba(8,10,14,0.42)" stroke-width="1.4"/><line x1="881.8" y1="443.3" x2="918.2" y2="461.5" stroke="rgba(8,10,14,0.3)" stroke-width="1.2"/><line x1="982.2" y1="418.5" x2="929.8" y2="444.7" stroke="rgba(8,10,14,0.42)" stroke-width="1.4"/><line x1="881.8" y1="426.5" x2="918.2" y2="444.7" stroke="rgba(8,10,14,0.3)" stroke-width="1.2"/><line x1="982.2" y1="401.7" x2="929.8" y2="427.9" stroke="rgba(8,10,14,0.42)" stroke-width="1.4"/><line x1="881.8" y1="409.7" x2="918.2" y2="427.9" stroke="rgba(8,10,14,0.3)" stroke-width="1.2"/><line x1="982.2" y1="384.9" x2="929.8" y2="411.1" stroke="rgba(8,10,14,0.42)" stroke-width="1.4"/><line x1="881.8" y1="392.9" x2="918.2" y2="411.1" stroke="rgba(8,10,14,0.3)" stroke-width="1.2"/><line x1="982.2" y1="368.1" x2="929.8" y2="394.3" stroke="rgba(8,10,14,0.42)" stroke-width="1.4"/><line x1="881.8" y1="376.1" x2="918.2" y2="394.3" stroke="rgba(8,10,14,0.3)" stroke-width="1.2"/><line x1="982.2" y1="351.3" x2="929.8" y2="377.5" stroke="rgba(8,10,14,0.42)" stroke-width="1.4"/><line x1="881.8" y1="359.3" x2="918.2" y2="377.5" stroke="rgba(8,10,14,0.3)" stroke-width="1.2"/><circle cx="951.2" cy="323.5" r="2.2" fill="rgba(140,170,210,0.6)"/><polygon points="796,379.6 844,403.6 844,521.2 796,497.2" fill="url(#g2l)" stroke="rgba(9,11,15,0.55)" stroke-width="1" stroke-linejoin="round"/><polygon points="908,371.6 844,403.6 844,521.2 908,489.2" fill="url(#g2r)" stroke="rgba(9,11,15,0.55)" stroke-width="1" stroke-linejoin="round"/><polygon points="860,347.6 908,371.6 844,403.6 796,379.6" fill="url(#g2t)" stroke="rgba(9,11,15,0.55)" stroke-width="1" stroke-linejoin="round"/><polyline points="796,379.6 860,347.6 908,371.6" fill="none" stroke="rgba(255,255,255,0.16)" stroke-width="1.1"/><line x1="902.2" y1="475.3" x2="849.8" y2="501.5" stroke="rgba(8,10,14,0.42)" stroke-width="1.4"/><line x1="801.8" y1="483.3" x2="838.2" y2="501.5" stroke="rgba(8,10,14,0.3)" stroke-width="1.2"/><line x1="902.2" y1="458.5" x2="849.8" y2="484.7" stroke="rgba(8,10,14,0.42)" stroke-width="1.4"/><line x1="801.8" y1="466.5" x2="838.2" y2="484.7" stroke="rgba(8,10,14,0.3)" stroke-width="1.2"/><line x1="902.2" y1="441.7" x2="849.8" y2="467.9" stroke="rgba(8,10,14,0.42)" stroke-width="1.4"/><line x1="801.8" y1="449.7" x2="838.2" y2="467.9" stroke="rgba(8,10,14,0.3)" stroke-width="1.2"/><line x1="902.2" y1="424.9" x2="849.8" y2="451.1" stroke="rgba(8,10,14,0.42)" stroke-width="1.4"/><line x1="801.8" y1="432.9" x2="838.2" y2="451.1" stroke="rgba(8,10,14,0.3)" stroke-width="1.2"/><line x1="902.2" y1="408.1" x2="849.8" y2="434.3" stroke="rgba(8,10,14,0.42)" stroke-width="1.4"/><line x1="801.8" y1="416.1" x2="838.2" y2="434.3" stroke="rgba(8,10,14,0.3)" stroke-width="1.2"/><line x1="902.2" y1="391.3" x2="849.8" y2="417.5" stroke="rgba(8,10,14,0.42)" stroke-width="1.4"/><line x1="801.8" y1="399.3" x2="838.2" y2="417.5" stroke="rgba(8,10,14,0.3)" stroke-width="1.2"/><circle cx="871.2" cy="363.5" r="2.2" fill="rgba(140,170,210,0.6)"/><polygon points="716,419.6 764,443.6 764,561.2 716,537.2" fill="url(#g2l)" stroke="rgba(9,11,15,0.55)" stroke-width="1" stroke-linejoin="round"/><polygon points="828,411.6 764,443.6 764,561.2 828,529.2" fill="url(#g2r)" stroke="rgba(9,11,15,0.55)" stroke-width="1" stroke-linejoin="round"/><polygon points="780,387.6 828,411.6 764,443.6 716,419.6" fill="url(#g2t)" stroke="rgba(9,11,15,0.55)" stroke-width="1" stroke-linejoin="round"/><polyline points="716,419.6 780,387.6 828,411.6" fill="none" stroke="rgba(255,255,255,0.16)" stroke-width="1.1"/><line x1="822.2" y1="515.3" x2="769.8" y2="541.5" stroke="rgba(8,10,14,0.42)" stroke-width="1.4"/><line x1="721.8" y1="523.3" x2="758.2" y2="541.5" stroke="rgba(8,10,14,0.3)" stroke-width="1.2"/><line x1="822.2" y1="498.5" x2="769.8" y2="524.7" stroke="rgba(8,10,14,0.42)" stroke-width="1.4"/><line x1="721.8" y1="506.5" x2="758.2" y2="524.7" stroke="rgba(8,10,14,0.3)" stroke-width="1.2"/><line x1="822.2" y1="481.7" x2="769.8" y2="507.9" stroke="rgba(8,10,14,0.42)" stroke-width="1.4"/><line x1="721.8" y1="489.7" x2="758.2" y2="507.9" stroke="rgba(8,10,14,0.3)" stroke-width="1.2"/><line x1="822.2" y1="464.9" x2="769.8" y2="491.1" stroke="rgba(8,10,14,0.42)" stroke-width="1.4"/><line x1="721.8" y1="472.9" x2="758.2" y2="491.1" stroke="rgba(8,10,14,0.3)" stroke-width="1.2"/><line x1="822.2" y1="448.1" x2="769.8" y2="474.3" stroke="rgba(8,10,14,0.42)" stroke-width="1.4"/><line x1="721.8" y1="456.1" x2="758.2" y2="474.3" stroke="rgba(8,10,14,0.3)" stroke-width="1.2"/><line x1="822.2" y1="431.3" x2="769.8" y2="457.5" stroke="rgba(8,10,14,0.42)" stroke-width="1.4"/><line x1="721.8" y1="439.3" x2="758.2" y2="457.5" stroke="rgba(8,10,14,0.3)" stroke-width="1.2"/><circle cx="791.2" cy="403.5" r="2.2" fill="rgba(140,170,210,0.6)"/>
</svg>
