<!-- Authored translucent-glass isometric source asset. Swap with a Spline/Figma render of the same layer at 1440x900 to upgrade fidelity; the React wrapper treats each layer as opaque. -->
<svg xmlns="http://www.w3.org/2000/svg" width="1440" height="900" viewBox="0 0 1440 900" fill="none"><defs>
<filter id="frost" x="-40%" y="-40%" width="180%" height="180%"><feGaussianBlur stdDeviation="9"/></filter>
<filter id="soft" x="-60%" y="-60%" width="220%" height="220%"><feGaussianBlur stdDeviation="16"/></filter>
<radialGradient id="shadow" cx="50%" cy="50%" r="50%"><stop offset="0%" stop-color="#000" stop-opacity="0.5"/><stop offset="70%" stop-color="#000" stop-opacity="0.18"/><stop offset="100%" stop-color="#000" stop-opacity="0"/></radialGradient>
<radialGradient id="steelcore" cx="50%" cy="42%" r="60%"><stop offset="0%" stop-color="#6f8bbd" stop-opacity="0.95"/><stop offset="45%" stop-color="#41557a" stop-opacity="0.8"/><stop offset="100%" stop-color="#2a3550" stop-opacity="0.2"/></radialGradient>
<radialGradient id="steelhalo" cx="50%" cy="50%" r="50%"><stop offset="0%" stop-color="#4a6090" stop-opacity="0.5"/><stop offset="100%" stop-color="#4a6090" stop-opacity="0"/></radialGradient>
<linearGradient id="gtop" x1="0" y1="0" x2="0.5" y2="1"><stop offset="0" stop-color="rgba(255,255,255,0.34)"/><stop offset="1" stop-color="rgba(255,255,255,0.08)"/></linearGradient></defs><ellipse cx="898.2" cy="313.9" rx="40" ry="16" fill="url(#shadow)" opacity="0.4"/><ellipse cx="830" cy="348" rx="40" ry="16" fill="url(#shadow)" opacity="0.4"/><ellipse cx="761.8" cy="382.1" rx="40" ry="16" fill="url(#shadow)" opacity="0.4"/><polygon points="831.1,199 890.5,228.7 890.5,341.5 831.1,311.8" fill="rgba(150,160,176,0.13999999999999999)" stroke="rgba(255,255,255,0.06999999999999999)" stroke-width="1" stroke-linejoin="round"/><polygon points="965.3,191.3 890.5,228.7 890.5,341.5 965.3,304.1" fill="rgba(150,160,176,0.091)" stroke="rgba(255,255,255,0.049)" stroke-width="1" stroke-linejoin="round"/><polygon points="905.9,161.6 965.3,191.3 890.5,228.7 831.1,199" fill="rgba(150,160,176,0.238)" stroke="rgba(255,255,255,0.091)" stroke-width="1" stroke-linejoin="round"/><polyline points="831.1,199 905.9,161.6 965.3,191.3" fill="none" stroke="rgba(255,255,255,0.35)" stroke-width="1.2"/><line x1="890.5" y1="228.7" x2="890.5" y2="341.5" stroke="rgba(255,255,255,0.126)" stroke-width="1"/><line x1="957.4" y1="289.2" x2="898.4" y2="318.7" stroke="rgba(180,195,215,0.16)" stroke-width="1"/><line x1="957.4" y1="270.4" x2="898.4" y2="299.9" stroke="rgba(180,195,215,0.16)" stroke-width="1"/><line x1="957.4" y1="251.6" x2="898.4" y2="281.1" stroke="rgba(180,195,215,0.16)" stroke-width="1"/><line x1="957.4" y1="232.8" x2="898.4" y2="262.3" stroke="rgba(180,195,215,0.16)" stroke-width="1"/><line x1="957.4" y1="214" x2="898.4" y2="243.5" stroke="rgba(180,195,215,0.16)" stroke-width="1"/><polygon points="762.9,233.1 822.3,262.8 822.3,375.6 762.9,345.9" fill="rgba(150,160,176,0.13999999999999999)" stroke="rgba(255,255,255,0.06999999999999999)" stroke-width="1" stroke-linejoin="round"/><polygon points="897.1,225.4 822.3,262.8 822.3,375.6 897.1,338.2" fill="rgba(150,160,176,0.091)" stroke="rgba(255,255,255,0.049)" stroke-width="1" stroke-linejoin="round"/><polygon points="837.7,195.7 897.1,225.4 822.3,262.8 762.9,233.1" fill="rgba(150,160,176,0.238)" stroke="rgba(255,255,255,0.091)" stroke-width="1" stroke-linejoin="round"/><polyline points="762.9,233.1 837.7,195.7 897.1,225.4" fill="none" stroke="rgba(255,255,255,0.35)" stroke-width="1.2"/><line x1="822.3" y1="262.8" x2="822.3" y2="375.6" stroke="rgba(255,255,255,0.126)" stroke-width="1"/><line x1="889.2" y1="323.3" x2="830.2" y2="352.8" stroke="rgba(180,195,215,0.16)" stroke-width="1"/><line x1="889.2" y1="304.5" x2="830.2" y2="334" stroke="rgba(180,195,215,0.16)" stroke-width="1"/><line x1="889.2" y1="285.7" x2="830.2" y2="315.2" stroke="rgba(180,195,215,0.16)" stroke-width="1"/><line x1="889.2" y1="266.9" x2="830.2" y2="296.4" stroke="rgba(180,195,215,0.16)" stroke-width="1"/><line x1="889.2" y1="248.1" x2="830.2" y2="277.6" stroke="rgba(180,195,215,0.16)" stroke-width="1"/><polygon points="694.7,267.2 754.1,296.9 754.1,409.7 694.7,380" fill="rgba(150,160,176,0.13999999999999999)" stroke="rgba(255,255,255,0.06999999999999999)" stroke-width="1" stroke-linejoin="round"/><polygon points="828.9,259.5 754.1,296.9 754.1,409.7 828.9,372.3" fill="rgba(150,160,176,0.091)" stroke="rgba(255,255,255,0.049)" stroke-width="1" stroke-linejoin="round"/><polygon points="769.5,229.8 828.9,259.5 754.1,296.9 694.7,267.2" fill="rgba(150,160,176,0.238)" stroke="rgba(255,255,255,0.091)" stroke-width="1" stroke-linejoin="round"/><polyline points="694.7,267.2 769.5,229.8 828.9,259.5" fill="none" stroke="rgba(255,255,255,0.35)" stroke-width="1.2"/><line x1="754.1" y1="296.9" x2="754.1" y2="409.7" stroke="rgba(255,255,255,0.126)" stroke-width="1"/><line x1="821" y1="357.4" x2="762" y2="386.9" stroke="rgba(180,195,215,0.16)" stroke-width="1"/><line x1="821" y1="338.6" x2="762" y2="368.1" stroke="rgba(180,195,215,0.16)" stroke-width="1"/><line x1="821" y1="319.8" x2="762" y2="349.3" stroke="rgba(180,195,215,0.16)" stroke-width="1"/><line x1="821" y1="301" x2="762" y2="330.5" stroke="rgba(180,195,215,0.16)" stroke-width="1"/><line x1="821" y1="282.2" x2="762" y2="311.7" stroke="rgba(180,195,215,0.16)" stroke-width="1"/></svg>
