<!-- Authored translucent-glass isometric source asset. Swap with a Spline/Figma render of the same layer at 1440x900 to upgrade fidelity; the React wrapper treats each layer as opaque. -->
<svg xmlns="http://www.w3.org/2000/svg" width="1440" height="900" viewBox="0 0 1440 900" fill="none"><defs>
<filter id="frost" x="-40%" y="-40%" width="180%" height="180%"><feGaussianBlur stdDeviation="9"/></filter>
<filter id="soft" x="-60%" y="-60%" width="220%" height="220%"><feGaussianBlur stdDeviation="16"/></filter>
<radialGradient id="shadow" cx="50%" cy="50%" r="50%"><stop offset="0%" stop-color="#000" stop-opacity="0.5"/><stop offset="70%" stop-color="#000" stop-opacity="0.18"/><stop offset="100%" stop-color="#000" stop-opacity="0"/></radialGradient>
<radialGradient id="steelcore" cx="50%" cy="42%" r="60%"><stop offset="0%" stop-color="#6f8bbd" stop-opacity="0.95"/><stop offset="45%" stop-color="#41557a" stop-opacity="0.8"/><stop offset="100%" stop-color="#2a3550" stop-opacity="0.2"/></radialGradient>
<radialGradient id="steelhalo" cx="50%" cy="50%" r="50%"><stop offset="0%" stop-color="#4a6090" stop-opacity="0.5"/><stop offset="100%" stop-color="#4a6090" stop-opacity="0"/></radialGradient>
<linearGradient id="gtop" x1="0" y1="0" x2="0.5" y2="1"><stop offset="0" stop-color="rgba(255,255,255,0.34)"/><stop offset="1" stop-color="rgba(255,255,255,0.08)"/></linearGradient></defs><ellipse cx="557.2" cy="341.2" rx="92" ry="36" fill="url(#shadow)" opacity="0.5"/><ellipse cx="557.2" cy="315.2" rx="96" ry="60" fill="rgba(224,232,246,0.22)" filter="url(#frost)"/><polygon points="407.6,227.6 557.2,302.4 557.2,408 407.6,333.2" fill="rgba(226,232,242,0.18)" stroke="rgba(255,255,255,0.1)" stroke-width="1" stroke-linejoin="round"/><polygon points="706.8,227.6 557.2,302.4 557.2,408 706.8,333.2" fill="rgba(226,232,242,0.11)" stroke="rgba(255,255,255,0.07)" stroke-width="1" stroke-linejoin="round"/><polygon points="557.2,152.8 706.8,227.6 557.2,302.4 407.6,227.6" fill="rgba(226,232,242,0.32)" stroke="rgba(255,255,255,0.13)" stroke-width="1" stroke-linejoin="round"/><polyline points="407.6,227.6 557.2,152.8 706.8,227.6" fill="none" stroke="rgba(255,255,255,0.6)" stroke-width="1.2"/><line x1="557.2" y1="302.4" x2="557.2" y2="408" stroke="rgba(255,255,255,0.18)" stroke-width="1"/><line x1="698" y1="316.5" x2="566" y2="382.5" stroke="rgba(255,255,255,0.14)" stroke-width="1.2"/><line x1="698" y1="295.4" x2="566" y2="361.4" stroke="rgba(255,255,255,0.14)" stroke-width="1.2"/><line x1="698" y1="274.2" x2="566" y2="340.2" stroke="rgba(255,255,255,0.14)" stroke-width="1.2"/><line x1="698" y1="253.1" x2="566" y2="319.1" stroke="rgba(255,255,255,0.14)" stroke-width="1.2"/><polygon points="469.2,215.6 557.2,259.6 557.2,271.6 469.2,227.6" fill="rgba(74,96,140,0.34)" stroke="rgba(255,255,255,0.1)" stroke-width="1" stroke-linejoin="round"/><polygon points="645.2,215.6 557.2,259.6 557.2,271.6 645.2,227.6" fill="rgba(74,96,140,0.24)" stroke="rgba(255,255,255,0.07)" stroke-width="1" stroke-linejoin="round"/><polygon points="557.2,171.6 645.2,215.6 557.2,259.6 469.2,215.6" fill="rgba(74,96,140,0.5)" stroke="rgba(255,255,255,0.13)" stroke-width="1" stroke-linejoin="round"/><polyline points="469.2,215.6 557.2,171.6 645.2,215.6" fill="none" stroke="rgba(255,255,255,0.55)" stroke-width="1.2"/><line x1="557.2" y1="259.6" x2="557.2" y2="271.6" stroke="rgba(255,255,255,0.18)" stroke-width="1"/><ellipse cx="557.2" cy="215.6" rx="21.2" ry="10.6" fill="rgba(159,177,208,0.9)"/></svg>
