<!-- Authored isometric source asset. Swap with a Figma/Spline render of the same layer + canvas (1440x900) to upgrade fidelity with no component change. -->
<svg xmlns="http://www.w3.org/2000/svg" width="1440" height="900" viewBox="0 0 1440 900" fill="none">
<defs><radialGradient id="ss" cx="50%" cy="50%" r="50%"><stop offset="0%" stop-color="#000" stop-opacity="0.55"/><stop offset="70%" stop-color="#000" stop-opacity="0.22"/><stop offset="100%" stop-color="#000" stop-opacity="0"/></radialGradient><linearGradient id="g0t" x1="0" y1="0" x2="0.65" y2="1"><stop offset="0" stop-color="#f3f6fb"/><stop offset="1" stop-color="#dbdee3"/></linearGradient><linearGradient id="g0l" x1="0" y1="0" x2="0" y2="1"><stop offset="0" stop-color="#bdc4cd"/><stop offset="1" stop-color="#979da4"/></linearGradient><linearGradient id="g0r" x1="0" y1="0" x2="0" y2="1"><stop offset="0" stop-color="#8a919c"/><stop offset="1" stop-color="#666b73"/></linearGradient><linearGradient id="g1t" x1="0" y1="0" x2="0.65" y2="1"><stop offset="0" stop-color="#f3f6fb"/><stop offset="1" stop-color="#dbdee3"/></linearGradient><linearGradient id="g1l" x1="0" y1="0" x2="0" y2="1"><stop offset="0" stop-color="#bdc4cd"/><stop offset="1" stop-color="#979da4"/></linearGradient><linearGradient id="g1r" x1="0" y1="0" x2="0" y2="1"><stop offset="0" stop-color="#8a919c"/><stop offset="1" stop-color="#666b73"/></linearGradient></defs>
<ellipse cx="645.6" cy="484.8" rx="96" ry="38" fill="url(#ss)" opacity="0.6"/><polygon points="520.8,384.5 645.6,446.9 645.6,537.2 520.8,474.8" fill="url(#g0l)" stroke="rgba(9,11,15,0.55)" stroke-width="1" stroke-linejoin="round"/><polygon points="770.4,384.5 645.6,446.9 645.6,537.2 770.4,474.8" fill="url(#g0r)" stroke="rgba(9,11,15,0.55)" stroke-width="1" stroke-linejoin="round"/><polygon points="645.6,322.1 770.4,384.5 645.6,446.9 520.8,384.5" fill="url(#g0t)" stroke="rgba(9,11,15,0.55)" stroke-width="1" stroke-linejoin="round"/><polyline points="520.8,384.5 645.6,322.1 770.4,384.5" fill="none" stroke="rgba(255,255,255,0.16)" stroke-width="1.1"/><line x1="764.6" y1="459.6" x2="651.4" y2="516.3" stroke="rgba(8,10,14,0.42)" stroke-width="1.4"/><line x1="526.6" y1="459.6" x2="639.8" y2="516.3" stroke="rgba(8,10,14,0.3)" stroke-width="1.2"/><line x1="764.6" y1="441.6" x2="651.4" y2="498.2" stroke="rgba(8,10,14,0.42)" stroke-width="1.4"/><line x1="526.6" y1="441.6" x2="639.8" y2="498.2" stroke="rgba(8,10,14,0.3)" stroke-width="1.2"/><line x1="764.6" y1="423.5" x2="651.4" y2="480.1" stroke="rgba(8,10,14,0.42)" stroke-width="1.4"/><line x1="526.6" y1="423.5" x2="639.8" y2="480.1" stroke="rgba(8,10,14,0.3)" stroke-width="1.2"/><line x1="764.6" y1="405.4" x2="651.4" y2="462.1" stroke="rgba(8,10,14,0.42)" stroke-width="1.4"/><line x1="526.6" y1="405.4" x2="639.8" y2="462.1" stroke="rgba(8,10,14,0.3)" stroke-width="1.2"/><polygon points="552.8,378.2 645.6,424.6 645.6,430.9 552.8,384.5" fill="url(#g1l)" stroke="rgba(9,11,15,0.55)" stroke-width="1" stroke-linejoin="round"/><polygon points="738.4,378.2 645.6,424.6 645.6,430.9 738.4,384.5" fill="url(#g1r)" stroke="rgba(9,11,15,0.55)" stroke-width="1" stroke-linejoin="round"/><polygon points="645.6,331.8 738.4,378.2 645.6,424.6 552.8,378.2" fill="url(#g1t)" stroke="rgba(9,11,15,0.55)" stroke-width="1" stroke-linejoin="round"/><polyline points="552.8,378.2 645.6,331.8 738.4,378.2" fill="none" stroke="rgba(255,255,255,0.16)" stroke-width="1.1"/><circle cx="645.6" cy="345.4" r="3.2" fill="#6479a0"/><circle cx="666.4" cy="355.8" r="2.6" fill="rgba(255,255,255,0.6)"/>
</svg>
