<!-- Authored translucent-glass isometric source asset. Swap with a Spline/Figma render of the same layer at 1440x900 to upgrade fidelity; the React wrapper treats each layer as opaque. -->
<svg xmlns="http://www.w3.org/2000/svg" width="1440" height="900" viewBox="0 0 1440 900" fill="none"><defs>
<filter id="frost" x="-40%" y="-40%" width="180%" height="180%"><feGaussianBlur stdDeviation="9"/></filter>
<filter id="soft" x="-60%" y="-60%" width="220%" height="220%"><feGaussianBlur stdDeviation="16"/></filter>
<radialGradient id="shadow" cx="50%" cy="50%" r="50%"><stop offset="0%" stop-color="#000" stop-opacity="0.5"/><stop offset="70%" stop-color="#000" stop-opacity="0.18"/><stop offset="100%" stop-color="#000" stop-opacity="0"/></radialGradient>
<radialGradient id="steelcore" cx="50%" cy="42%" r="60%"><stop offset="0%" stop-color="#6f8bbd" stop-opacity="0.95"/><stop offset="45%" stop-color="#41557a" stop-opacity="0.8"/><stop offset="100%" stop-color="#2a3550" stop-opacity="0.2"/></radialGradient>
<radialGradient id="steelhalo" cx="50%" cy="50%" r="50%"><stop offset="0%" stop-color="#4a6090" stop-opacity="0.5"/><stop offset="100%" stop-color="#4a6090" stop-opacity="0"/></radialGradient>
<linearGradient id="gtop" x1="0" y1="0" x2="0.5" y2="1"><stop offset="0" stop-color="rgba(255,255,255,0.34)"/><stop offset="1" stop-color="rgba(255,255,255,0.08)"/></linearGradient></defs><ellipse cx="566" cy="571.2" rx="250" ry="70" fill="url(#shadow)" opacity="0.5"/><polygon points="137,516.9 555,725.9 555,739.1 137,530.1" fill="rgba(226,232,242,0.04)" stroke="rgba(255,255,255,0.1)" stroke-width="1" stroke-linejoin="round"/><polygon points="973,516.9 555,725.9 555,739.1 973,530.1" fill="rgba(226,232,242,0.03)" stroke="rgba(255,255,255,0.07)" stroke-width="1" stroke-linejoin="round"/><polygon points="555,307.9 973,516.9 555,725.9 137,516.9" fill="rgba(226,232,242,0.05)" stroke="rgba(255,255,255,0.13)" stroke-width="1" stroke-linejoin="round"/><polyline points="137,516.9 555,307.9 973,516.9" fill="none" stroke="rgba(255,255,255,0.1)" stroke-width="1.2"/><line x1="555" y1="725.9" x2="555" y2="739.1" stroke="rgba(255,255,255,0.18)" stroke-width="1"/><polygon points="137,510.2 555,719.2 555,725.9 137,516.9" fill="rgba(226,232,242,0.05)" stroke="rgba(255,255,255,0.1)" stroke-width="1" stroke-linejoin="round"/><polygon points="973,510.2 555,719.2 555,725.9 973,516.9" fill="rgba(226,232,242,0.035)" stroke="rgba(255,255,255,0.07)" stroke-width="1" stroke-linejoin="round"/><polygon points="555,301.2 973,510.2 555,719.2 137,510.2" fill="rgba(226,232,242,0.1)" stroke="rgba(255,255,255,0.13)" stroke-width="1" stroke-linejoin="round"/><polyline points="137,510.2 555,301.2 973,510.2" fill="none" stroke="rgba(255,255,255,0.26)" stroke-width="1.2"/><line x1="555" y1="719.2" x2="555" y2="725.9" stroke="rgba(255,255,255,0.18)" stroke-width="1"/><polygon points="555,311.7 951,509.7 555,707.7 159,509.7" fill="none" stroke="rgba(126,148,185,0.66)" stroke-width="1.5" stroke-dasharray="4 7" opacity="0.8"/><circle cx="555" cy="311.7" r="2.4" fill="none" stroke="rgba(126,148,185,0.66)" stroke-width="1.2" opacity="0.85"/><circle cx="951" cy="509.7" r="2.4" fill="none" stroke="rgba(126,148,185,0.66)" stroke-width="1.2" opacity="0.85"/><circle cx="555" cy="707.7" r="2.4" fill="none" stroke="rgba(126,148,185,0.66)" stroke-width="1.2" opacity="0.85"/><circle cx="159" cy="509.7" r="2.4" fill="none" stroke="rgba(126,148,185,0.66)" stroke-width="1.2" opacity="0.85"/></svg>
