<!-- Authored isometric source asset. Swap with a Figma/Spline render of the same layer + canvas (1440x900) to upgrade fidelity with no component change. -->
<svg xmlns="http://www.w3.org/2000/svg" width="1440" height="900" viewBox="0 0 1440 900" fill="none">
<defs><radialGradient id="qs" cx="50%" cy="50%" r="50%"><stop offset="0%" stop-color="#000" stop-opacity="0.55"/><stop offset="70%" stop-color="#000" stop-opacity="0.22"/><stop offset="100%" stop-color="#000" stop-opacity="0"/></radialGradient></defs>
<ellipse cx="328.8" cy="468" rx="78" ry="30" fill="url(#qs)" opacity="0.5"/><polygon points="216.8,460.1 319.2,511.3 319.2,518 216.8,466.8" fill="#7c8289" stroke="rgba(9,11,15,0.55)" stroke-width="1" stroke-linejoin="round"/><polygon points="440.8,450.5 319.2,511.3 319.2,518 440.8,457.2" fill="#5c6169" stroke="rgba(9,11,15,0.55)" stroke-width="1" stroke-linejoin="round"/><polygon points="338.4,399.3 440.8,450.5 319.2,511.3 216.8,460.1" fill="#9b9ea3" stroke="rgba(9,11,15,0.55)" stroke-width="1" stroke-linejoin="round"/><polyline points="216.8,460.1 338.4,399.3 440.8,450.5" fill="none" stroke="rgba(255,255,255,0.16)" stroke-width="1.1"/><polygon points="216.8,449.6 319.2,500.8 319.2,507.5 216.8,456.3" fill="#858b92" stroke="rgba(9,11,15,0.55)" stroke-width="1" stroke-linejoin="round"/><polygon points="440.8,440 319.2,500.8 319.2,507.5 440.8,446.7" fill="#626871" stroke="rgba(9,11,15,0.55)" stroke-width="1" stroke-linejoin="round"/><polygon points="338.4,388.8 440.8,440 319.2,500.8 216.8,449.6" fill="#a6aaaf" stroke="rgba(9,11,15,0.55)" stroke-width="1" stroke-linejoin="round"/><polyline points="216.8,449.6 338.4,388.8 440.8,440" fill="none" stroke="rgba(255,255,255,0.16)" stroke-width="1.1"/><polygon points="216.8,439.1 319.2,490.3 319.2,497 216.8,445.8" fill="#8e949c" stroke="rgba(9,11,15,0.55)" stroke-width="1" stroke-linejoin="round"/><polygon points="440.8,429.5 319.2,490.3 319.2,497 440.8,436.2" fill="#696f78" stroke="rgba(9,11,15,0.55)" stroke-width="1" stroke-linejoin="round"/><polygon points="338.4,378.3 440.8,429.5 319.2,490.3 216.8,439.1" fill="#b1b5ba" stroke="rgba(9,11,15,0.55)" stroke-width="1" stroke-linejoin="round"/><polyline points="216.8,439.1 338.4,378.3 440.8,429.5" fill="none" stroke="rgba(255,255,255,0.16)" stroke-width="1.1"/><polygon points="216.8,428.6 319.2,479.8 319.2,486.5 216.8,435.3" fill="#969da6" stroke="rgba(9,11,15,0.55)" stroke-width="1" stroke-linejoin="round"/><polygon points="440.8,419 319.2,479.8 319.2,486.5 440.8,425.7" fill="#6f7680" stroke="rgba(9,11,15,0.55)" stroke-width="1" stroke-linejoin="round"/><polygon points="338.4,367.8 440.8,419 319.2,479.8 216.8,428.6" fill="#bcc0c6" stroke="rgba(9,11,15,0.55)" stroke-width="1" stroke-linejoin="round"/><polyline points="216.8,428.6 338.4,367.8 440.8,419" fill="none" stroke="rgba(255,255,255,0.16)" stroke-width="1.1"/><polygon points="216.8,418.1 319.2,469.3 319.2,476 216.8,424.8" fill="#9fa7b0" stroke="rgba(9,11,15,0.55)" stroke-width="1" stroke-linejoin="round"/><polygon points="440.8,408.5 319.2,469.3 319.2,476 440.8,415.2" fill="#767d87" stroke="rgba(9,11,15,0.55)" stroke-width="1" stroke-linejoin="round"/><polygon points="338.4,357.3 440.8,408.5 319.2,469.3 216.8,418.1" fill="#c7cbd2" stroke="rgba(9,11,15,0.55)" stroke-width="1" stroke-linejoin="round"/><polyline points="216.8,418.1 338.4,357.3 440.8,408.5" fill="none" stroke="rgba(255,255,255,0.16)" stroke-width="1.1"/><polygon points="216.8,407.6 319.2,458.8 319.2,465.5 216.8,414.3" fill="#a8b0b9" stroke="rgba(9,11,15,0.55)" stroke-width="1" stroke-linejoin="round"/><polygon points="440.8,398 319.2,458.8 319.2,465.5 440.8,404.7" fill="#7c848f" stroke="rgba(9,11,15,0.55)" stroke-width="1" stroke-linejoin="round"/><polygon points="338.4,346.8 440.8,398 319.2,458.8 216.8,407.6" fill="#d2d7dd" stroke="rgba(9,11,15,0.55)" stroke-width="1" stroke-linejoin="round"/><polyline points="216.8,407.6 338.4,346.8 440.8,398" fill="none" stroke="rgba(255,255,255,0.16)" stroke-width="1.1"/><polygon points="216.8,397.1 319.2,448.3 319.2,455 216.8,403.8" fill="#b1b9c3" stroke="rgba(9,11,15,0.55)" stroke-width="1" stroke-linejoin="round"/><polygon points="440.8,387.5 319.2,448.3 319.2,455 440.8,394.2" fill="#838b96" stroke="rgba(9,11,15,0.55)" stroke-width="1" stroke-linejoin="round"/><polygon points="338.4,336.3 440.8,387.5 319.2,448.3 216.8,397.1" fill="#dde2e9" stroke="rgba(9,11,15,0.55)" stroke-width="1" stroke-linejoin="round"/><polyline points="216.8,397.1 338.4,336.3 440.8,387.5" fill="none" stroke="rgba(255,255,255,0.16)" stroke-width="1.1"/>
</svg>
