<!-- Authored translucent-glass isometric source asset. Swap with a Spline/Figma render of the same layer at 1440x900 to upgrade fidelity; the React wrapper treats each layer as opaque. -->
<svg xmlns="http://www.w3.org/2000/svg" width="1440" height="900" viewBox="0 0 1440 900" fill="none"><defs>
<filter id="frost" x="-40%" y="-40%" width="180%" height="180%"><feGaussianBlur stdDeviation="9"/></filter>
<filter id="soft" x="-60%" y="-60%" width="220%" height="220%"><feGaussianBlur stdDeviation="16"/></filter>
<radialGradient id="shadow" cx="50%" cy="50%" r="50%"><stop offset="0%" stop-color="#000" stop-opacity="0.5"/><stop offset="70%" stop-color="#000" stop-opacity="0.18"/><stop offset="100%" stop-color="#000" stop-opacity="0"/></radialGradient>
<radialGradient id="steelcore" cx="50%" cy="42%" r="60%"><stop offset="0%" stop-color="#6f8bbd" stop-opacity="0.95"/><stop offset="45%" stop-color="#41557a" stop-opacity="0.8"/><stop offset="100%" stop-color="#2a3550" stop-opacity="0.2"/></radialGradient>
<radialGradient id="steelhalo" cx="50%" cy="50%" r="50%"><stop offset="0%" stop-color="#4a6090" stop-opacity="0.5"/><stop offset="100%" stop-color="#4a6090" stop-opacity="0"/></radialGradient>
<linearGradient id="gtop" x1="0" y1="0" x2="0.5" y2="1"><stop offset="0" stop-color="rgba(255,255,255,0.34)"/><stop offset="1" stop-color="rgba(255,255,255,0.08)"/></linearGradient></defs><ellipse cx="284.4" cy="339.2" rx="72" ry="28" fill="url(#shadow)" opacity="0.45"/><ellipse cx="284.4" cy="327.2" rx="78" ry="42" fill="rgba(224,232,246,0.22)" filter="url(#frost)"/><polygon points="159,328.3 277.8,387.7 277.8,395.9 159,336.5" fill="rgba(226,232,242,0.1)" stroke="rgba(255,255,255,0.1)" stroke-width="1" stroke-linejoin="round"/><polygon points="409.8,321.7 277.8,387.7 277.8,395.9 409.8,329.9" fill="rgba(226,232,242,0.07)" stroke="rgba(255,255,255,0.07)" stroke-width="1" stroke-linejoin="round"/><polygon points="291,262.3 409.8,321.7 277.8,387.7 159,328.3" fill="rgba(226,232,242,0.16)" stroke="rgba(255,255,255,0.13)" stroke-width="1" stroke-linejoin="round"/><polyline points="159,328.3 291,262.3 409.8,321.7" fill="none" stroke="rgba(255,255,255,0.4)" stroke-width="1.2"/><line x1="277.8" y1="387.7" x2="277.8" y2="395.9" stroke="rgba(255,255,255,0.18)" stroke-width="1"/><polygon points="159,313.5 277.8,372.9 277.8,381 159,321.6" fill="rgba(226,232,242,0.1)" stroke="rgba(255,255,255,0.1)" stroke-width="1" stroke-linejoin="round"/><polygon points="409.8,306.9 277.8,372.9 277.8,381 409.8,315" fill="rgba(226,232,242,0.07)" stroke="rgba(255,255,255,0.07)" stroke-width="1" stroke-linejoin="round"/><polygon points="291,247.5 409.8,306.9 277.8,372.9 159,313.5" fill="rgba(226,232,242,0.18)" stroke="rgba(255,255,255,0.13)" stroke-width="1" stroke-linejoin="round"/><polyline points="159,313.5 291,247.5 409.8,306.9" fill="none" stroke="rgba(255,255,255,0.4)" stroke-width="1.2"/><line x1="277.8" y1="372.9" x2="277.8" y2="381" stroke="rgba(255,255,255,0.18)" stroke-width="1"/><polygon points="159,298.6 277.8,358 277.8,366.1 159,306.7" fill="rgba(226,232,242,0.1)" stroke="rgba(255,255,255,0.1)" stroke-width="1" stroke-linejoin="round"/><polygon points="409.8,292 277.8,358 277.8,366.1 409.8,300.1" fill="rgba(226,232,242,0.07)" stroke="rgba(255,255,255,0.07)" stroke-width="1" stroke-linejoin="round"/><polygon points="291,232.6 409.8,292 277.8,358 159,298.6" fill="rgba(226,232,242,0.2)" stroke="rgba(255,255,255,0.13)" stroke-width="1" stroke-linejoin="round"/><polyline points="159,298.6 291,232.6 409.8,292" fill="none" stroke="rgba(255,255,255,0.4)" stroke-width="1.2"/><line x1="277.8" y1="358" x2="277.8" y2="366.1" stroke="rgba(255,255,255,0.18)" stroke-width="1"/><polygon points="159,283.7 277.8,343.1 277.8,351.3 159,291.9" fill="rgba(226,232,242,0.1)" stroke="rgba(255,255,255,0.1)" stroke-width="1" stroke-linejoin="round"/><polygon points="409.8,277.1 277.8,343.1 277.8,351.3 409.8,285.3" fill="rgba(226,232,242,0.07)" stroke="rgba(255,255,255,0.07)" stroke-width="1" stroke-linejoin="round"/><polygon points="291,217.7 409.8,277.1 277.8,343.1 159,283.7" fill="rgba(226,232,242,0.22)" stroke="rgba(255,255,255,0.13)" stroke-width="1" stroke-linejoin="round"/><polyline points="159,283.7 291,217.7 409.8,277.1" fill="none" stroke="rgba(255,255,255,0.4)" stroke-width="1.2"/><line x1="277.8" y1="343.1" x2="277.8" y2="351.3" stroke="rgba(255,255,255,0.18)" stroke-width="1"/><polygon points="159,268.8 277.8,328.2 277.8,336.4 159,277" fill="rgba(226,232,242,0.1)" stroke="rgba(255,255,255,0.1)" stroke-width="1" stroke-linejoin="round"/><polygon points="409.8,262.2 277.8,328.2 277.8,336.4 409.8,270.4" fill="rgba(226,232,242,0.07)" stroke="rgba(255,255,255,0.07)" stroke-width="1" stroke-linejoin="round"/><polygon points="291,202.8 409.8,262.2 277.8,328.2 159,268.8" fill="rgba(226,232,242,0.24)" stroke="rgba(255,255,255,0.13)" stroke-width="1" stroke-linejoin="round"/><polyline points="159,268.8 291,202.8 409.8,262.2" fill="none" stroke="rgba(255,255,255,0.4)" stroke-width="1.2"/><line x1="277.8" y1="328.2" x2="277.8" y2="336.4" stroke="rgba(255,255,255,0.18)" stroke-width="1"/><polygon points="159,253.9 277.8,313.3 277.8,321.5 159,262.1" fill="rgba(226,232,242,0.1)" stroke="rgba(255,255,255,0.1)" stroke-width="1" stroke-linejoin="round"/><polygon points="409.8,247.3 277.8,313.3 277.8,321.5 409.8,255.5" fill="rgba(226,232,242,0.07)" stroke="rgba(255,255,255,0.07)" stroke-width="1" stroke-linejoin="round"/><polygon points="291,187.9 409.8,247.3 277.8,313.3 159,253.9" fill="rgba(226,232,242,0.26)" stroke="rgba(255,255,255,0.13)" stroke-width="1" stroke-linejoin="round"/><polyline points="159,253.9 291,187.9 409.8,247.3" fill="none" stroke="rgba(255,255,255,0.4)" stroke-width="1.2"/><line x1="277.8" y1="313.3" x2="277.8" y2="321.5" stroke="rgba(255,255,255,0.18)" stroke-width="1"/><polygon points="172.2,252.7 277.8,305.5 277.8,313.7 172.2,260.9" fill="rgba(74,96,140,0.32)" stroke="rgba(255,255,255,0.1)" stroke-width="1" stroke-linejoin="round"/><polygon points="396.6,246.1 277.8,305.5 277.8,313.7 396.6,254.3" fill="rgba(74,96,140,0.22)" stroke="rgba(255,255,255,0.07)" stroke-width="1" stroke-linejoin="round"/><polygon points="291,193.3 396.6,246.1 277.8,305.5 172.2,252.7" fill="rgba(74,96,140,0.5)" stroke="rgba(255,255,255,0.13)" stroke-width="1" stroke-linejoin="round"/><polyline points="172.2,252.7 291,193.3 396.6,246.1" fill="none" stroke="rgba(255,255,255,0.5)" stroke-width="1.2"/><line x1="277.8" y1="305.5" x2="277.8" y2="313.7" stroke="rgba(255,255,255,0.18)" stroke-width="1"/></svg>
