<svg xmlns="http://www.w3.org/2000/svg" width="1280" height="850" viewBox="0 0 1280 850"><rect x="0" y="0" width="1280" height="850" fill="#080a0e"/><polygon points="480,526 280,626 280,639.2 480,539.2" fill="#0a0d12" stroke="rgba(226,230,236,0.5)" stroke-width="1.1" stroke-linejoin="round"/><polygon points="80,526 280,626 280,639.2 80,539.2" fill="#070a0e" stroke="rgba(226,230,236,0.5)" stroke-width="1.1" stroke-linejoin="round"/><polygon points="280,426 480,526 280,626 80,526" fill="#0e1218" stroke="#e2e6ec" stroke-width="1.2" stroke-linejoin="round"/><polygon points="328,431.8 264,463.8 264,510 328,478" fill="#0a0d12" stroke="#e2e6ec" stroke-width="1.1" stroke-linejoin="round"/><polygon points="212,437.8 264,463.8 264,510 212,484" fill="#070a0e" stroke="#e2e6ec" stroke-width="1.1" stroke-linejoin="round"/><polygon points="276,405.8 328,431.8 264,463.8 212,437.8" fill="#0e1218" stroke="#e2e6ec" stroke-width="1.1" stroke-linejoin="round"/><line x1="323.2" y1="472.7" x2="268.8" y2="499.9" stroke="rgba(226,230,236,0.5)" stroke-width="0.8" stroke-linecap="round"/><line x1="323.2" y1="465" x2="268.8" y2="492.2" stroke="rgba(226,230,236,0.5)" stroke-width="0.8" stroke-linecap="round"/><line x1="323.2" y1="457.3" x2="268.8" y2="484.5" stroke="rgba(226,230,236,0.5)" stroke-width="0.8" stroke-linecap="round"/><line x1="323.2" y1="449.6" x2="268.8" y2="476.8" stroke="rgba(226,230,236,0.5)" stroke-width="0.8" stroke-linecap="round"/><line x1="323.2" y1="441.9" x2="268.8" y2="469.1" stroke="rgba(226,230,236,0.5)" stroke-width="0.8" stroke-linecap="round"/><line x1="267.2" y1="414.2" x2="311.2" y2="436.2" stroke="rgba(226,230,236,0.26)" stroke-width="0.7" stroke-linecap="round"/><line x1="254.4" y1="420.6" x2="298.4" y2="442.6" stroke="rgba(226,230,236,0.26)" stroke-width="0.7" stroke-linecap="round"/><line x1="241.6" y1="427" x2="285.6" y2="449" stroke="rgba(226,230,236,0.26)" stroke-width="0.7" stroke-linecap="round"/><line x1="228.8" y1="433.4" x2="272.8" y2="455.4" stroke="rgba(226,230,236,0.26)" stroke-width="0.7" stroke-linecap="round"/><circle cx="312" cy="450" r="1.6" fill="#7b91bb"/><polygon points="344,536.3 280,568.3 280,598 344,566" fill="#0a0d12" stroke="#e2e6ec" stroke-width="1.1" stroke-linejoin="round"/><polygon points="216,536.3 280,568.3 280,598 216,566" fill="#070a0e" stroke="#e2e6ec" stroke-width="1.1" stroke-linejoin="round"/><polygon points="280,504.3 344,536.3 280,568.3 216,536.3" fill="#0e1218" stroke="#e2e6ec" stroke-width="1.1" stroke-linejoin="round"/><line x1="280" y1="442" x2="280" y2="323.2" stroke="rgba(226,230,236,0.26)" stroke-width="0.8" stroke-dasharray="2 4" stroke-linecap="round"/><line x1="448" y1="526" x2="448" y2="407.2" stroke="rgba(226,230,236,0.26)" stroke-width="0.8" stroke-dasharray="2 4" stroke-linecap="round"/><line x1="112" y1="526" x2="112" y2="407.2" stroke="rgba(226,230,236,0.26)" stroke-width="0.8" stroke-dasharray="2 4" stroke-linecap="round"/><line x1="280" y1="610" x2="280" y2="491.2" stroke="rgba(226,230,236,0.26)" stroke-width="0.8" stroke-dasharray="2 4" stroke-linecap="round"/><polygon points="480,407.2 280,507.2 280,517.8 480,417.8" fill="#0a0d12" stroke="rgba(226,230,236,0.5)" stroke-width="1.1" stroke-linejoin="round"/><polygon points="80,407.2 280,507.2 280,517.8 80,417.8" fill="#070a0e" stroke="rgba(226,230,236,0.5)" stroke-width="1.1" stroke-linejoin="round"/><polygon points="280,307.2 480,407.2 280,507.2 80,407.2" fill="#0e1218" stroke="#e2e6ec" stroke-width="1.2" stroke-linejoin="round"/><polygon points="320,288.5 276,310.5 276,373.2 320,351.2" fill="#0a0d12" stroke="#e2e6ec" stroke-width="1.1" stroke-linejoin="round"/><polygon points="232,288.5 276,310.5 276,373.2 232,351.2" fill="#070a0e" stroke="#e2e6ec" stroke-width="1.1" stroke-linejoin="round"/><polygon points="276,266.5 320,288.5 276,310.5 232,288.5" fill="#0e1218" stroke="#e2e6ec" stroke-width="1.1" stroke-linejoin="round"/><line x1="315.2" y1="343.2" x2="280.8" y2="360.4" stroke="rgba(226,230,236,0.5)" stroke-width="0.8" stroke-linecap="round"/><line x1="315.2" y1="332.7" x2="280.8" y2="349.9" stroke="rgba(226,230,236,0.5)" stroke-width="0.8" stroke-linecap="round"/><line x1="315.2" y1="322.3" x2="280.8" y2="339.5" stroke="rgba(226,230,236,0.5)" stroke-width="0.8" stroke-linecap="round"/><line x1="315.2" y1="311.8" x2="280.8" y2="329" stroke="rgba(226,230,236,0.5)" stroke-width="0.8" stroke-linecap="round"/><line x1="315.2" y1="301.3" x2="280.8" y2="318.6" stroke="rgba(226,230,236,0.5)" stroke-width="0.8" stroke-linecap="round"/><line x1="271.2" y1="272.9" x2="307.2" y2="290.9" stroke="rgba(226,230,236,0.26)" stroke-width="0.7" stroke-linecap="round"/><line x1="262.4" y1="277.3" x2="298.4" y2="295.3" stroke="rgba(226,230,236,0.26)" stroke-width="0.7" stroke-linecap="round"/><line x1="253.6" y1="281.7" x2="289.6" y2="299.7" stroke="rgba(226,230,236,0.26)" stroke-width="0.7" stroke-linecap="round"/><line x1="244.8" y1="286.1" x2="280.8" y2="304.1" stroke="rgba(226,230,236,0.26)" stroke-width="0.7" stroke-linecap="round"/><circle cx="304" cy="310.3" r="1.6" fill="#7b91bb"/><polygon points="380,318.5 336,340.5 336,403.2 380,381.2" fill="#0a0d12" stroke="#e2e6ec" stroke-width="1.1" stroke-linejoin="round"/><polygon points="292,318.5 336,340.5 336,403.2 292,381.2" fill="#070a0e" stroke="#e2e6ec" stroke-width="1.1" stroke-linejoin="round"/><polygon points="336,296.5 380,318.5 336,340.5 292,318.5" fill="#0e1218" stroke="#e2e6ec" stroke-width="1.1" stroke-linejoin="round"/><line x1="375.2" y1="373.2" x2="340.8" y2="390.4" stroke="rgba(226,230,236,0.5)" stroke-width="0.8" stroke-linecap="round"/><line x1="375.2" y1="362.7" x2="340.8" y2="379.9" stroke="rgba(226,230,236,0.5)" stroke-width="0.8" stroke-linecap="round"/><line x1="375.2" y1="352.3" x2="340.8" y2="369.5" stroke="rgba(226,230,236,0.5)" stroke-width="0.8" stroke-linecap="round"/><line x1="375.2" y1="341.8" x2="340.8" y2="359" stroke="rgba(226,230,236,0.5)" stroke-width="0.8" stroke-linecap="round"/><line x1="375.2" y1="331.3" x2="340.8" y2="348.6" stroke="rgba(226,230,236,0.5)" stroke-width="0.8" stroke-linecap="round"/><line x1="331.2" y1="302.9" x2="367.2" y2="320.9" stroke="rgba(226,230,236,0.26)" stroke-width="0.7" stroke-linecap="round"/><line x1="322.4" y1="307.3" x2="358.4" y2="325.3" stroke="rgba(226,230,236,0.26)" stroke-width="0.7" stroke-linecap="round"/><line x1="313.6" y1="311.7" x2="349.6" y2="329.7" stroke="rgba(226,230,236,0.26)" stroke-width="0.7" stroke-linecap="round"/><line x1="304.8" y1="316.1" x2="340.8" y2="334.1" stroke="rgba(226,230,236,0.26)" stroke-width="0.7" stroke-linecap="round"/><circle cx="364" cy="340.3" r="1.6" fill="#7b91bb"/><polygon points="440,348.5 396,370.5 396,433.2 440,411.2" fill="#0a0d12" stroke="#e2e6ec" stroke-width="1.1" stroke-linejoin="round"/><polygon points="352,348.5 396,370.5 396,433.2 352,411.2" fill="#070a0e" stroke="#e2e6ec" stroke-width="1.1" stroke-linejoin="round"/><polygon points="396,326.5 440,348.5 396,370.5 352,348.5" fill="#0e1218" stroke="#e2e6ec" stroke-width="1.1" stroke-linejoin="round"/><line x1="435.2" y1="403.2" x2="400.8" y2="420.4" stroke="rgba(226,230,236,0.5)" stroke-width="0.8" stroke-linecap="round"/><line x1="435.2" y1="392.7" x2="400.8" y2="409.9" stroke="rgba(226,230,236,0.5)" stroke-width="0.8" stroke-linecap="round"/><line x1="435.2" y1="382.3" x2="400.8" y2="399.5" stroke="rgba(226,230,236,0.5)" stroke-width="0.8" stroke-linecap="round"/><line x1="435.2" y1="371.8" x2="400.8" y2="389" stroke="rgba(226,230,236,0.5)" stroke-width="0.8" stroke-linecap="round"/><line x1="435.2" y1="361.3" x2="400.8" y2="378.6" stroke="rgba(226,230,236,0.5)" stroke-width="0.8" stroke-linecap="round"/><line x1="391.2" y1="332.9" x2="427.2" y2="350.9" stroke="rgba(226,230,236,0.26)" stroke-width="0.7" stroke-linecap="round"/><line x1="382.4" y1="337.3" x2="418.4" y2="355.3" stroke="rgba(226,230,236,0.26)" stroke-width="0.7" stroke-linecap="round"/><line x1="373.6" y1="341.7" x2="409.6" y2="359.7" stroke="rgba(226,230,236,0.26)" stroke-width="0.7" stroke-linecap="round"/><line x1="364.8" y1="346.1" x2="400.8" y2="364.1" stroke="rgba(226,230,236,0.26)" stroke-width="0.7" stroke-linecap="round"/><circle cx="424" cy="370.3" r="1.6" fill="#7b91bb"/><polygon points="260,318.5 216,340.5 216,403.2 260,381.2" fill="#0a0d12" stroke="#e2e6ec" stroke-width="1.1" stroke-linejoin="round"/><polygon points="172,318.5 216,340.5 216,403.2 172,381.2" fill="#070a0e" stroke="#e2e6ec" stroke-width="1.1" stroke-linejoin="round"/><polygon points="216,296.5 260,318.5 216,340.5 172,318.5" fill="#0e1218" stroke="#e2e6ec" stroke-width="1.1" stroke-linejoin="round"/><line x1="255.2" y1="373.2" x2="220.8" y2="390.4" stroke="rgba(226,230,236,0.5)" stroke-width="0.8" stroke-linecap="round"/><line x1="255.2" y1="362.7" x2="220.8" y2="379.9" stroke="rgba(226,230,236,0.5)" stroke-width="0.8" stroke-linecap="round"/><line x1="255.2" y1="352.3" x2="220.8" y2="369.5" stroke="rgba(226,230,236,0.5)" stroke-width="0.8" stroke-linecap="round"/><line x1="255.2" y1="341.8" x2="220.8" y2="359" stroke="rgba(226,230,236,0.5)" stroke-width="0.8" stroke-linecap="round"/><line x1="255.2" y1="331.3" x2="220.8" y2="348.6" stroke="rgba(226,230,236,0.5)" stroke-width="0.8" stroke-linecap="round"/><line x1="211.2" y1="302.9" x2="247.2" y2="320.9" stroke="rgba(226,230,236,0.26)" stroke-width="0.7" stroke-linecap="round"/><line x1="202.4" y1="307.3" x2="238.4" y2="325.3" stroke="rgba(226,230,236,0.26)" stroke-width="0.7" stroke-linecap="round"/><line x1="193.6" y1="311.7" x2="229.6" y2="329.7" stroke="rgba(226,230,236,0.26)" stroke-width="0.7" stroke-linecap="round"/><line x1="184.8" y1="316.1" x2="220.8" y2="334.1" stroke="rgba(226,230,236,0.26)" stroke-width="0.7" stroke-linecap="round"/><circle cx="244" cy="340.3" r="1.6" fill="#7b91bb"/><polygon points="320,348.5 276,370.5 276,433.2 320,411.2" fill="#0a0d12" stroke="#e2e6ec" stroke-width="1.1" stroke-linejoin="round"/><polygon points="232,348.5 276,370.5 276,433.2 232,411.2" fill="#070a0e" stroke="#e2e6ec" stroke-width="1.1" stroke-linejoin="round"/><polygon points="276,326.5 320,348.5 276,370.5 232,348.5" fill="#0e1218" stroke="#e2e6ec" stroke-width="1.1" stroke-linejoin="round"/><line x1="315.2" y1="403.2" x2="280.8" y2="420.4" stroke="rgba(226,230,236,0.5)" stroke-width="0.8" stroke-linecap="round"/><line x1="315.2" y1="392.7" x2="280.8" y2="409.9" stroke="rgba(226,230,236,0.5)" stroke-width="0.8" stroke-linecap="round"/><line x1="315.2" y1="382.3" x2="280.8" y2="399.5" stroke="rgba(226,230,236,0.5)" stroke-width="0.8" stroke-linecap="round"/><line x1="315.2" y1="371.8" x2="280.8" y2="389" stroke="rgba(226,230,236,0.5)" stroke-width="0.8" stroke-linecap="round"/><line x1="315.2" y1="361.3" x2="280.8" y2="378.6" stroke="rgba(226,230,236,0.5)" stroke-width="0.8" stroke-linecap="round"/><line x1="271.2" y1="332.9" x2="307.2" y2="350.9" stroke="rgba(226,230,236,0.26)" stroke-width="0.7" stroke-linecap="round"/><line x1="262.4" y1="337.3" x2="298.4" y2="355.3" stroke="rgba(226,230,236,0.26)" stroke-width="0.7" stroke-linecap="round"/><line x1="253.6" y1="341.7" x2="289.6" y2="359.7" stroke="rgba(226,230,236,0.26)" stroke-width="0.7" stroke-linecap="round"/><line x1="244.8" y1="346.1" x2="280.8" y2="364.1" stroke="rgba(226,230,236,0.26)" stroke-width="0.7" stroke-linecap="round"/><circle cx="304" cy="370.3" r="1.6" fill="#7b91bb"/><polygon points="380,378.5 336,400.5 336,463.2 380,441.2" fill="#0a0d12" stroke="#e2e6ec" stroke-width="1.1" stroke-linejoin="round"/><polygon points="292,378.5 336,400.5 336,463.2 292,441.2" fill="#070a0e" stroke="#e2e6ec" stroke-width="1.1" stroke-linejoin="round"/><polygon points="336,356.5 380,378.5 336,400.5 292,378.5" fill="#0e1218" stroke="#e2e6ec" stroke-width="1.1" stroke-linejoin="round"/><line x1="375.2" y1="433.2" x2="340.8" y2="450.4" stroke="rgba(226,230,236,0.5)" stroke-width="0.8" stroke-linecap="round"/><line x1="375.2" y1="422.7" x2="340.8" y2="439.9" stroke="rgba(226,230,236,0.5)" stroke-width="0.8" stroke-linecap="round"/><line x1="375.2" y1="412.3" x2="340.8" y2="429.5" stroke="rgba(226,230,236,0.5)" stroke-width="0.8" stroke-linecap="round"/><line x1="375.2" y1="401.8" x2="340.8" y2="419" stroke="rgba(226,230,236,0.5)" stroke-width="0.8" stroke-linecap="round"/><line x1="375.2" y1="391.3" x2="340.8" y2="408.6" stroke="rgba(226,230,236,0.5)" stroke-width="0.8" stroke-linecap="round"/><line x1="331.2" y1="362.9" x2="367.2" y2="380.9" stroke="rgba(226,230,236,0.26)" stroke-width="0.7" stroke-linecap="round"/><line x1="322.4" y1="367.3" x2="358.4" y2="385.3" stroke="rgba(226,230,236,0.26)" stroke-width="0.7" stroke-linecap="round"/><line x1="313.6" y1="371.7" x2="349.6" y2="389.7" stroke="rgba(226,230,236,0.26)" stroke-width="0.7" stroke-linecap="round"/><line x1="304.8" y1="376.1" x2="340.8" y2="394.1" stroke="rgba(226,230,236,0.26)" stroke-width="0.7" stroke-linecap="round"/><circle cx="364" cy="400.3" r="1.6" fill="#7b91bb"/><polygon points="200,348.5 156,370.5 156,433.2 200,411.2" fill="#0a0d12" stroke="#e2e6ec" stroke-width="1.1" stroke-linejoin="round"/><polygon points="112,348.5 156,370.5 156,433.2 112,411.2" fill="#070a0e" stroke="#e2e6ec" stroke-width="1.1" stroke-linejoin="round"/><polygon points="156,326.5 200,348.5 156,370.5 112,348.5" fill="#0e1218" stroke="#e2e6ec" stroke-width="1.1" stroke-linejoin="round"/><line x1="195.2" y1="403.2" x2="160.8" y2="420.4" stroke="rgba(226,230,236,0.5)" stroke-width="0.8" stroke-linecap="round"/><line x1="195.2" y1="392.7" x2="160.8" y2="409.9" stroke="rgba(226,230,236,0.5)" stroke-width="0.8" stroke-linecap="round"/><line x1="195.2" y1="382.3" x2="160.8" y2="399.5" stroke="rgba(226,230,236,0.5)" stroke-width="0.8" stroke-linecap="round"/><line x1="195.2" y1="371.8" x2="160.8" y2="389" stroke="rgba(226,230,236,0.5)" stroke-width="0.8" stroke-linecap="round"/><line x1="195.2" y1="361.3" x2="160.8" y2="378.6" stroke="rgba(226,230,236,0.5)" stroke-width="0.8" stroke-linecap="round"/><line x1="151.2" y1="332.9" x2="187.2" y2="350.9" stroke="rgba(226,230,236,0.26)" stroke-width="0.7" stroke-linecap="round"/><line x1="142.4" y1="337.3" x2="178.4" y2="355.3" stroke="rgba(226,230,236,0.26)" stroke-width="0.7" stroke-linecap="round"/><line x1="133.6" y1="341.7" x2="169.6" y2="359.7" stroke="rgba(226,230,236,0.26)" stroke-width="0.7" stroke-linecap="round"/><line x1="124.8" y1="346.1" x2="160.8" y2="364.1" stroke="rgba(226,230,236,0.26)" stroke-width="0.7" stroke-linecap="round"/><circle cx="184" cy="370.3" r="1.6" fill="#7b91bb"/><polygon points="260,378.5 216,400.5 216,463.2 260,441.2" fill="#0a0d12" stroke="#e2e6ec" stroke-width="1.1" stroke-linejoin="round"/><polygon points="172,378.5 216,400.5 216,463.2 172,441.2" fill="#070a0e" stroke="#e2e6ec" stroke-width="1.1" stroke-linejoin="round"/><polygon points="216,356.5 260,378.5 216,400.5 172,378.5" fill="#0e1218" stroke="#e2e6ec" stroke-width="1.1" stroke-linejoin="round"/><line x1="255.2" y1="433.2" x2="220.8" y2="450.4" stroke="rgba(226,230,236,0.5)" stroke-width="0.8" stroke-linecap="round"/><line x1="255.2" y1="422.7" x2="220.8" y2="439.9" stroke="rgba(226,230,236,0.5)" stroke-width="0.8" stroke-linecap="round"/><line x1="255.2" y1="412.3" x2="220.8" y2="429.5" stroke="rgba(226,230,236,0.5)" stroke-width="0.8" stroke-linecap="round"/><line x1="255.2" y1="401.8" x2="220.8" y2="419" stroke="rgba(226,230,236,0.5)" stroke-width="0.8" stroke-linecap="round"/><line x1="255.2" y1="391.3" x2="220.8" y2="408.6" stroke="rgba(226,230,236,0.5)" stroke-width="0.8" stroke-linecap="round"/><line x1="211.2" y1="362.9" x2="247.2" y2="380.9" stroke="rgba(226,230,236,0.26)" stroke-width="0.7" stroke-linecap="round"/><line x1="202.4" y1="367.3" x2="238.4" y2="385.3" stroke="rgba(226,230,236,0.26)" stroke-width="0.7" stroke-linecap="round"/><line x1="193.6" y1="371.7" x2="229.6" y2="389.7" stroke="rgba(226,230,236,0.26)" stroke-width="0.7" stroke-linecap="round"/><line x1="184.8" y1="376.1" x2="220.8" y2="394.1" stroke="rgba(226,230,236,0.26)" stroke-width="0.7" stroke-linecap="round"/><circle cx="244" cy="400.3" r="1.6" fill="#7b91bb"/><polygon points="320,408.5 276,430.5 276,493.2 320,471.2" fill="#0a0d12" stroke="#e2e6ec" stroke-width="1.1" stroke-linejoin="round"/><polygon points="232,408.5 276,430.5 276,493.2 232,471.2" fill="#070a0e" stroke="#e2e6ec" stroke-width="1.1" stroke-linejoin="round"/><polygon points="276,386.5 320,408.5 276,430.5 232,408.5" fill="#0e1218" stroke="#e2e6ec" stroke-width="1.1" stroke-linejoin="round"/><line x1="315.2" y1="463.2" x2="280.8" y2="480.4" stroke="rgba(226,230,236,0.5)" stroke-width="0.8" stroke-linecap="round"/><line x1="315.2" y1="452.7" x2="280.8" y2="469.9" stroke="rgba(226,230,236,0.5)" stroke-width="0.8" stroke-linecap="round"/><line x1="315.2" y1="442.3" x2="280.8" y2="459.5" stroke="rgba(226,230,236,0.5)" stroke-width="0.8" stroke-linecap="round"/><line x1="315.2" y1="431.8" x2="280.8" y2="449" stroke="rgba(226,230,236,0.5)" stroke-width="0.8" stroke-linecap="round"/><line x1="315.2" y1="421.4" x2="280.8" y2="438.6" stroke="rgba(226,230,236,0.5)" stroke-width="0.8" stroke-linecap="round"/><line x1="271.2" y1="392.9" x2="307.2" y2="410.9" stroke="rgba(226,230,236,0.26)" stroke-width="0.7" stroke-linecap="round"/><line x1="262.4" y1="397.3" x2="298.4" y2="415.3" stroke="rgba(226,230,236,0.26)" stroke-width="0.7" stroke-linecap="round"/><line x1="253.6" y1="401.7" x2="289.6" y2="419.7" stroke="rgba(226,230,236,0.26)" stroke-width="0.7" stroke-linecap="round"/><line x1="244.8" y1="406.1" x2="280.8" y2="424.1" stroke="rgba(226,230,236,0.26)" stroke-width="0.7" stroke-linecap="round"/><circle cx="304" cy="430.3" r="1.6" fill="#7b91bb"/><polygon points="1008,466.6 808,566.6 808,578.5 1008,478.5" fill="#0a0d12" stroke="rgba(226,230,236,0.5)" stroke-width="1.1" stroke-linejoin="round"/><polygon points="608,466.6 808,566.6 808,578.5 608,478.5" fill="#070a0e" stroke="rgba(226,230,236,0.5)" stroke-width="1.1" stroke-linejoin="round"/><polygon points="808,366.6 1008,466.6 808,566.6 608,466.6" fill="#0e1218" stroke="#e2e6ec" stroke-width="1.2" stroke-linejoin="round"/><polygon points="788,376.6 628,456.6 628,387.3 788,307.3" fill="rgba(123,145,187,0.05)" stroke="rgba(226,230,236,0.6)" stroke-width="1.1" stroke-linejoin="round"/><polygon points="797.6,347.4 784,354.2 784,420.2 797.6,413.4" fill="#0a0d12" stroke="#e2e6ec" stroke-width="1" stroke-linejoin="round"/><polygon points="770.4,347.4 784,354.2 784,420.2 770.4,413.4" fill="#070a0e" stroke="#e2e6ec" stroke-width="1" stroke-linejoin="round"/><polygon points="784,340.6 797.6,347.4 784,354.2 770.4,347.4" fill="#0e1218" stroke="#e2e6ec" stroke-width="1" stroke-linejoin="round"/><polygon points="705.6,393.4 692,400.2 692,466.2 705.6,459.4" fill="#0a0d12" stroke="#e2e6ec" stroke-width="1" stroke-linejoin="round"/><polygon points="678.4,393.4 692,400.2 692,466.2 678.4,459.4" fill="#070a0e" stroke="#e2e6ec" stroke-width="1" stroke-linejoin="round"/><polygon points="692,386.6 705.6,393.4 692,400.2 678.4,393.4" fill="#0e1218" stroke="#e2e6ec" stroke-width="1" stroke-linejoin="round"/><line x1="784" y1="347.4" x2="692" y2="393.4" stroke="#e2e6ec" stroke-width="1.1" stroke-linecap="round"/><line x1="778.8" y1="364.5" x2="778.8" y2="409.4" stroke="rgba(226,230,236,0.5)" stroke-width="1.2" opacity="0.6" stroke-linecap="round"/><line x1="752.1" y1="377.9" x2="752.1" y2="422.7" stroke="rgba(226,230,236,0.5)" stroke-width="1.2" opacity="0.6" stroke-linecap="round"/><line x1="725.5" y1="391.2" x2="725.5" y2="436.1" stroke="rgba(226,230,236,0.5)" stroke-width="1.2" opacity="0.6" stroke-linecap="round"/><line x1="698.8" y1="404.5" x2="698.8" y2="449.4" stroke="#c25b57" stroke-width="1.2" opacity="0.9" stroke-linecap="round"/><polygon points="916,468.6 812,520.6 812,530.5 916,478.5" fill="#0a0d12" stroke="rgba(226,230,236,0.5)" stroke-width="1.1" stroke-linejoin="round"/><polygon points="716,472.6 812,520.6 812,530.5 716,482.5" fill="#070a0e" stroke="rgba(226,230,236,0.5)" stroke-width="1.1" stroke-linejoin="round"/><polygon points="820,420.6 916,468.6 812,520.6 716,472.6" fill="#0e1218" stroke="#e2e6ec" stroke-width="1.2" stroke-linejoin="round"/><polyline points="820,440.6 876,468.6 812,500.6 756,472.6 820,440.6" fill="none" stroke="rgba(226,230,236,0.5)" stroke-width="0.9" stroke-linecap="round" stroke-linejoin="round"/><polygon points="872,454.1 816,482.1 816,498.6 872,470.6" fill="#0a0d12" stroke="#e2e6ec" stroke-width="1" stroke-linejoin="round"/><polygon points="760,454.1 816,482.1 816,498.6 760,470.6" fill="#070a0e" stroke="#e2e6ec" stroke-width="1" stroke-linejoin="round"/><polygon points="816,426.1 872,454.1 816,482.1 760,454.1" fill="rgba(123,145,187,0.12)" stroke="#e2e6ec" stroke-width="1" stroke-linejoin="round"/><polygon points="816,445.1 823,453.1 819.5,453.1 816,448.6 812.5,453.1 809,453.1" fill="none" stroke="#7b91bb" stroke-width="1.1" stroke-linejoin="round"/><polygon points="988,476.6 936,502.6 936,507.9 988,481.9" fill="#0a0d12" stroke="rgba(226,230,236,0.5)" stroke-width="1.1" stroke-linejoin="round"/><polygon points="876,472.6 936,502.6 936,507.9 876,477.9" fill="#070a0e" stroke="rgba(226,230,236,0.5)" stroke-width="1.1" stroke-linejoin="round"/><polygon points="928,446.6 988,476.6 936,502.6 876,472.6" fill="#0e1218" stroke="#e2e6ec" stroke-width="1.2" stroke-linejoin="round"/><polygon points="988,465.4 936,491.4 936,496.7 988,470.7" fill="#0a0d12" stroke="rgba(226,230,236,0.5)" stroke-width="1.1" stroke-linejoin="round"/><polygon points="876,461.4 936,491.4 936,496.7 876,466.7" fill="#070a0e" stroke="rgba(226,230,236,0.5)" stroke-width="1.1" stroke-linejoin="round"/><polygon points="928,435.4 988,465.4 936,491.4 876,461.4" fill="#0e1218" stroke="#e2e6ec" stroke-width="1.2" stroke-linejoin="round"/><polygon points="988,454.2 936,480.2 936,485.4 988,459.4" fill="#0a0d12" stroke="rgba(226,230,236,0.5)" stroke-width="1.1" stroke-linejoin="round"/><polygon points="876,450.2 936,480.2 936,485.4 876,455.4" fill="#070a0e" stroke="rgba(226,230,236,0.5)" stroke-width="1.1" stroke-linejoin="round"/><polygon points="928,424.2 988,454.2 936,480.2 876,450.2" fill="#0e1218" stroke="#e2e6ec" stroke-width="1.2" stroke-linejoin="round"/><polygon points="988,442.9 936,468.9 936,474.2 988,448.2" fill="#0a0d12" stroke="rgba(226,230,236,0.5)" stroke-width="1.1" stroke-linejoin="round"/><polygon points="876,438.9 936,468.9 936,474.2 876,444.2" fill="#070a0e" stroke="rgba(226,230,236,0.5)" stroke-width="1.1" stroke-linejoin="round"/><polygon points="928,412.9 988,442.9 936,468.9 876,438.9" fill="#0e1218" stroke="#e2e6ec" stroke-width="1.2" stroke-linejoin="round"/><polygon points="988,431.7 936,457.7 936,463 988,437" fill="#0a0d12" stroke="rgba(226,230,236,0.5)" stroke-width="1.1" stroke-linejoin="round"/><polygon points="876,427.7 936,457.7 936,463 876,433" fill="#070a0e" stroke="rgba(226,230,236,0.5)" stroke-width="1.1" stroke-linejoin="round"/><polygon points="928,401.7 988,431.7 936,457.7 876,427.7" fill="#0e1218" stroke="#e2e6ec" stroke-width="1.2" stroke-linejoin="round"/><polygon points="988,420.5 936,446.5 936,451.8 988,425.8" fill="#0a0d12" stroke="rgba(226,230,236,0.5)" stroke-width="1.1" stroke-linejoin="round"/><polygon points="876,416.5 936,446.5 936,451.8 876,421.8" fill="#070a0e" stroke="rgba(226,230,236,0.5)" stroke-width="1.1" stroke-linejoin="round"/><polygon points="928,390.5 988,420.5 936,446.5 876,416.5" fill="rgba(123,145,187,0.14)" stroke="#e2e6ec" stroke-width="1.2" stroke-linejoin="round"/><path d="M 738,263.4
    a 20,20 0 0 1 2,-34
    a 22,22 0 0 1 40,-12
    a 26,26 0 0 1 52,10
    a 18,18 0 0 1 -2,36
    Z" transform="translate(16,-8)" fill="#080a0e" stroke="rgba(226,230,236,0.5)" stroke-width="1"/><line x1="740" y1="243.4" x2="756" y2="235.4" stroke="rgba(226,230,236,0.5)" stroke-width="0.9" stroke-linecap="round"/><line x1="830" y1="263.4" x2="846" y2="255.4" stroke="rgba(226,230,236,0.5)" stroke-width="0.9" stroke-linecap="round"/><path d="M 738,263.4
    a 20,20 0 0 1 2,-34
    a 22,22 0 0 1 40,-12
    a 26,26 0 0 1 52,10
    a 18,18 0 0 1 -2,36
    Z" fill="#080a0e" stroke="#e2e6ec" stroke-width="1.2"/><rect x="764" y="239.4" width="7" height="7" fill="#7b91bb"/><rect x="778" y="257.4" width="7" height="7" fill="rgba(123,145,187,0.5)"/><rect x="796" y="233.4" width="7" height="7" fill="rgba(123,145,187,0.5)"/><rect x="796" y="261.4" width="7" height="7" fill="#7b91bb"/><rect x="814" y="247.4" width="7" height="7" fill="rgba(123,145,187,0.5)"/><rect x="830" y="237.4" width="7" height="7" fill="rgba(123,145,187,0.5)"/><rect x="830" y="263.4" width="7" height="7" fill="#7b91bb"/><rect x="764" y="259.4" width="7" height="7" fill="rgba(123,145,187,0.5)"/><line x1="788" y1="428.8" x2="782" y2="325.4" stroke="rgba(123,145,187,0.5)" stroke-width="1" stroke-dasharray="2 5" stroke-linecap="round"/><line x1="808" y1="446.8" x2="808" y2="325.4" stroke="rgba(123,145,187,0.5)" stroke-width="1" stroke-dasharray="2 5" stroke-linecap="round"/><line x1="828" y1="464.8" x2="834" y2="325.4" stroke="rgba(123,145,187,0.5)" stroke-width="1" stroke-dasharray="2 5" stroke-linecap="round"/></svg>
