<svg xmlns="http://www.w3.org/2000/svg" width="880" height="744" viewBox="0 0 880 744"><rect x="0" y="0" width="880" height="744" fill="#080a0e"/><line x1="432" y1="431.6" x2="432" y2="173.6" stroke="rgba(226,230,236,0.24)" stroke-width="0.8" stroke-dasharray="2 5" stroke-linecap="round"/><line x1="583.8" y1="507.5" x2="583.8" y2="249.5" stroke="rgba(226,230,236,0.24)" stroke-width="0.8" stroke-dasharray="2 5" stroke-linecap="round"/><line x1="280.2" y1="507.5" x2="280.2" y2="249.5" stroke="rgba(226,230,236,0.24)" stroke-width="0.8" stroke-dasharray="2 5" stroke-linecap="round"/><line x1="432" y1="583.4" x2="432" y2="325.4" stroke="rgba(226,230,236,0.24)" stroke-width="0.8" stroke-dasharray="2 5" stroke-linecap="round"/><polygon points="630,491 432,590 432,600.2 630,501.2" fill="#0a0d12" stroke="rgba(226,230,236,0.5)" stroke-width="1.1" stroke-linejoin="round"/><polygon points="234,491 432,590 432,600.2 234,501.2" fill="#070a0e" stroke="rgba(226,230,236,0.5)" stroke-width="1.1" stroke-linejoin="round"/><polygon points="432,392 630,491 432,590 234,491" fill="#0e1218" stroke="#e2e6ec" stroke-width="1.2" stroke-linejoin="round"/><polygon points="468.3,391.6 418.8,416.3 418.8,461.3 468.3,436.6" fill="#0a0d12" stroke="#e2e6ec" stroke-width="1.1" stroke-linejoin="round"/><polygon points="379.2,396.5 418.8,416.3 418.8,461.3 379.2,441.5" fill="#070a0e" stroke="#e2e6ec" stroke-width="1.1" stroke-linejoin="round"/><polygon points="428.7,371.8 468.3,391.6 418.8,416.3 379.2,396.5" fill="#0e1218" stroke="#e2e6ec" stroke-width="1.1" stroke-linejoin="round"/><line x1="464.3" y1="429.5" x2="422.8" y2="450.3" stroke="rgba(226,230,236,0.5)" stroke-width="0.8" stroke-linecap="round"/><line x1="464.3" y1="420.5" x2="422.8" y2="441.3" stroke="rgba(226,230,236,0.5)" stroke-width="0.8" stroke-linecap="round"/><line x1="464.3" y1="411.5" x2="422.8" y2="432.3" stroke="rgba(226,230,236,0.5)" stroke-width="0.8" stroke-linecap="round"/><line x1="464.3" y1="402.5" x2="422.8" y2="423.3" stroke="rgba(226,230,236,0.5)" stroke-width="0.8" stroke-linecap="round"/><line x1="419.6" y1="379.6" x2="452.6" y2="396.1" stroke="rgba(226,230,236,0.24)" stroke-width="0.7" stroke-linecap="round"/><line x1="407.3" y1="385.8" x2="440.3" y2="402.3" stroke="rgba(226,230,236,0.24)" stroke-width="0.7" stroke-linecap="round"/><line x1="394.9" y1="392" x2="427.9" y2="408.5" stroke="rgba(226,230,236,0.24)" stroke-width="0.7" stroke-linecap="round"/><circle cx="455.1" cy="408" r="1.5" fill="#7b91bb"/><polygon points="524.4,419.6 474.9,444.4 474.9,489.4 524.4,464.6" fill="#0a0d12" stroke="#e2e6ec" stroke-width="1.1" stroke-linejoin="round"/><polygon points="435.3,424.6 474.9,444.4 474.9,489.4 435.3,469.6" fill="#070a0e" stroke="#e2e6ec" stroke-width="1.1" stroke-linejoin="round"/><polygon points="484.8,399.8 524.4,419.6 474.9,444.4 435.3,424.6" fill="#0e1218" stroke="#e2e6ec" stroke-width="1.1" stroke-linejoin="round"/><line x1="520.4" y1="457.6" x2="478.9" y2="478.4" stroke="rgba(226,230,236,0.5)" stroke-width="0.8" stroke-linecap="round"/><line x1="520.4" y1="448.6" x2="478.9" y2="469.4" stroke="rgba(226,230,236,0.5)" stroke-width="0.8" stroke-linecap="round"/><line x1="520.4" y1="439.6" x2="478.9" y2="460.4" stroke="rgba(226,230,236,0.5)" stroke-width="0.8" stroke-linecap="round"/><line x1="520.4" y1="430.6" x2="478.9" y2="451.4" stroke="rgba(226,230,236,0.5)" stroke-width="0.8" stroke-linecap="round"/><line x1="475.7" y1="407.6" x2="508.7" y2="424.1" stroke="rgba(226,230,236,0.24)" stroke-width="0.7" stroke-linecap="round"/><line x1="463.4" y1="413.8" x2="496.4" y2="430.3" stroke="rgba(226,230,236,0.24)" stroke-width="0.7" stroke-linecap="round"/><line x1="451" y1="420" x2="484" y2="436.5" stroke="rgba(226,230,236,0.24)" stroke-width="0.7" stroke-linecap="round"/><circle cx="511.2" cy="436.1" r="1.5" fill="#7b91bb"/><polygon points="580.5,447.7 531,472.4 531,517.4 580.5,492.7" fill="#0a0d12" stroke="#e2e6ec" stroke-width="1.1" stroke-linejoin="round"/><polygon points="491.4,452.6 531,472.4 531,517.4 491.4,497.6" fill="#070a0e" stroke="#e2e6ec" stroke-width="1.1" stroke-linejoin="round"/><polygon points="540.9,427.9 580.5,447.7 531,472.4 491.4,452.6" fill="#0e1218" stroke="#e2e6ec" stroke-width="1.1" stroke-linejoin="round"/><line x1="576.5" y1="485.6" x2="535" y2="506.4" stroke="rgba(226,230,236,0.5)" stroke-width="0.8" stroke-linecap="round"/><line x1="576.5" y1="476.6" x2="535" y2="497.4" stroke="rgba(226,230,236,0.5)" stroke-width="0.8" stroke-linecap="round"/><line x1="576.5" y1="467.6" x2="535" y2="488.4" stroke="rgba(226,230,236,0.5)" stroke-width="0.8" stroke-linecap="round"/><line x1="576.5" y1="458.6" x2="535" y2="479.4" stroke="rgba(226,230,236,0.5)" stroke-width="0.8" stroke-linecap="round"/><line x1="531.8" y1="435.7" x2="564.8" y2="452.2" stroke="rgba(226,230,236,0.24)" stroke-width="0.7" stroke-linecap="round"/><line x1="519.5" y1="441.9" x2="552.5" y2="458.4" stroke="rgba(226,230,236,0.24)" stroke-width="0.7" stroke-linecap="round"/><line x1="507.1" y1="448.1" x2="540.1" y2="464.6" stroke="rgba(226,230,236,0.24)" stroke-width="0.7" stroke-linecap="round"/><circle cx="567.3" cy="464.2" r="1.5" fill="#7b91bb"/><polygon points="382.5,434.5 333,459.2 333,504.2 382.5,479.5" fill="#0a0d12" stroke="#e2e6ec" stroke-width="1.1" stroke-linejoin="round"/><polygon points="293.4,439.4 333,459.2 333,504.2 293.4,484.4" fill="#070a0e" stroke="#e2e6ec" stroke-width="1.1" stroke-linejoin="round"/><polygon points="342.9,414.7 382.5,434.5 333,459.2 293.4,439.4" fill="#0e1218" stroke="#e2e6ec" stroke-width="1.1" stroke-linejoin="round"/><line x1="378.5" y1="472.4" x2="337" y2="493.2" stroke="rgba(226,230,236,0.5)" stroke-width="0.8" stroke-linecap="round"/><line x1="378.5" y1="463.4" x2="337" y2="484.2" stroke="rgba(226,230,236,0.5)" stroke-width="0.8" stroke-linecap="round"/><line x1="378.5" y1="454.4" x2="337" y2="475.2" stroke="rgba(226,230,236,0.5)" stroke-width="0.8" stroke-linecap="round"/><line x1="378.5" y1="445.4" x2="337" y2="466.2" stroke="rgba(226,230,236,0.5)" stroke-width="0.8" stroke-linecap="round"/><line x1="333.8" y1="422.5" x2="366.8" y2="439" stroke="rgba(226,230,236,0.24)" stroke-width="0.7" stroke-linecap="round"/><line x1="321.5" y1="428.7" x2="354.5" y2="445.2" stroke="rgba(226,230,236,0.24)" stroke-width="0.7" stroke-linecap="round"/><line x1="309.1" y1="434.9" x2="342.1" y2="451.4" stroke="rgba(226,230,236,0.24)" stroke-width="0.7" stroke-linecap="round"/><circle cx="369.3" cy="450.9" r="1.5" fill="#7b91bb"/><polygon points="438.6,462.5 389.1,487.3 389.1,532.3 438.6,507.5" fill="#0a0d12" stroke="#e2e6ec" stroke-width="1.1" stroke-linejoin="round"/><polygon points="349.5,467.5 389.1,487.3 389.1,532.3 349.5,512.5" fill="#070a0e" stroke="#e2e6ec" stroke-width="1.1" stroke-linejoin="round"/><polygon points="399,442.7 438.6,462.5 389.1,487.3 349.5,467.5" fill="#0e1218" stroke="#e2e6ec" stroke-width="1.1" stroke-linejoin="round"/><line x1="434.6" y1="500.5" x2="393.1" y2="521.3" stroke="rgba(226,230,236,0.5)" stroke-width="0.8" stroke-linecap="round"/><line x1="434.6" y1="491.5" x2="393.1" y2="512.3" stroke="rgba(226,230,236,0.5)" stroke-width="0.8" stroke-linecap="round"/><line x1="434.6" y1="482.5" x2="393.1" y2="503.3" stroke="rgba(226,230,236,0.5)" stroke-width="0.8" stroke-linecap="round"/><line x1="434.6" y1="473.5" x2="393.1" y2="494.3" stroke="rgba(226,230,236,0.5)" stroke-width="0.8" stroke-linecap="round"/><line x1="389.9" y1="450.5" x2="422.9" y2="467" stroke="rgba(226,230,236,0.24)" stroke-width="0.7" stroke-linecap="round"/><line x1="377.6" y1="456.7" x2="410.6" y2="473.2" stroke="rgba(226,230,236,0.24)" stroke-width="0.7" stroke-linecap="round"/><line x1="365.2" y1="462.9" x2="398.2" y2="479.4" stroke="rgba(226,230,236,0.24)" stroke-width="0.7" stroke-linecap="round"/><circle cx="425.4" cy="479" r="1.5" fill="#7b91bb"/><polygon points="494.7,490.6 445.2,515.3 445.2,560.3 494.7,535.6" fill="#0a0d12" stroke="#e2e6ec" stroke-width="1.1" stroke-linejoin="round"/><polygon points="405.6,495.5 445.2,515.3 445.2,560.3 405.6,540.5" fill="#070a0e" stroke="#e2e6ec" stroke-width="1.1" stroke-linejoin="round"/><polygon points="455.1,470.8 494.7,490.6 445.2,515.3 405.6,495.5" fill="#0e1218" stroke="#e2e6ec" stroke-width="1.1" stroke-linejoin="round"/><line x1="490.7" y1="528.5" x2="449.2" y2="549.3" stroke="rgba(226,230,236,0.5)" stroke-width="0.8" stroke-linecap="round"/><line x1="490.7" y1="519.5" x2="449.2" y2="540.3" stroke="rgba(226,230,236,0.5)" stroke-width="0.8" stroke-linecap="round"/><line x1="490.7" y1="510.5" x2="449.2" y2="531.3" stroke="rgba(226,230,236,0.5)" stroke-width="0.8" stroke-linecap="round"/><line x1="490.7" y1="501.5" x2="449.2" y2="522.3" stroke="rgba(226,230,236,0.5)" stroke-width="0.8" stroke-linecap="round"/><line x1="446" y1="478.6" x2="479" y2="495.1" stroke="rgba(226,230,236,0.24)" stroke-width="0.7" stroke-linecap="round"/><line x1="433.7" y1="484.8" x2="466.7" y2="501.3" stroke="rgba(226,230,236,0.24)" stroke-width="0.7" stroke-linecap="round"/><line x1="421.3" y1="491" x2="454.3" y2="507.5" stroke="rgba(226,230,236,0.24)" stroke-width="0.7" stroke-linecap="round"/><circle cx="481.5" cy="507.1" r="1.5" fill="#7b91bb"/><polygon points="682.8,365 432,490.4 432,501.8 682.8,376.4" fill="#0a0d12" stroke="rgba(226,230,236,0.5)" stroke-width="1.1" stroke-linejoin="round"/><polygon points="181.2,365 432,490.4 432,501.8 181.2,376.4" fill="#070a0e" stroke="rgba(226,230,236,0.5)" stroke-width="1.1" stroke-linejoin="round"/><polygon points="432,239.6 682.8,365 432,490.4 181.2,365" fill="#0e1218" stroke="#e2e6ec" stroke-width="1.3" stroke-linejoin="round"/><polygon points="537.6,314 432,366.8 432,417.8 537.6,365" fill="#0a0d12" stroke="#e2e6ec" stroke-width="1.3" stroke-linejoin="round"/><polygon points="326.4,314 432,366.8 432,417.8 326.4,365" fill="#070a0e" stroke="#e2e6ec" stroke-width="1.3" stroke-linejoin="round"/><polygon points="432,261.2 537.6,314 432,366.8 326.4,314" fill="#0e1218" stroke="#e2e6ec" stroke-width="1.3" stroke-linejoin="round"/><polyline points="432,277.7 504.6,314 432,350.3 359.4,314 432,277.7" fill="none" stroke="rgba(226,230,236,0.5)" stroke-width="0.9" stroke-linejoin="round" stroke-linecap="round"/><polygon points="432,303 440,313 436,313 432,307.5 428,313 424,313" fill="none" stroke="#7b91bb" stroke-width="1.2" stroke-linejoin="round"/><polygon points="533.6,319.2 524.4,323.8 524.4,380.8 533.6,376.2" fill="#0a0d12" stroke="#e2e6ec" stroke-width="1" stroke-linejoin="round"/><polygon points="515.2,319.2 524.4,323.8 524.4,380.8 515.2,376.2" fill="#070a0e" stroke="#e2e6ec" stroke-width="1" stroke-linejoin="round"/><polygon points="524.4,314.6 533.6,319.2 524.4,323.8 515.2,319.2" fill="#0e1218" stroke="#e2e6ec" stroke-width="1" stroke-linejoin="round"/><polygon points="454.4,358.8 445.2,363.4 445.2,420.4 454.4,415.8" fill="#0a0d12" stroke="#e2e6ec" stroke-width="1" stroke-linejoin="round"/><polygon points="436,358.8 445.2,363.4 445.2,420.4 436,415.8" fill="#070a0e" stroke="#e2e6ec" stroke-width="1" stroke-linejoin="round"/><polygon points="445.2,354.2 454.4,358.8 445.2,363.4 436,358.8" fill="#0e1218" stroke="#e2e6ec" stroke-width="1" stroke-linejoin="round"/><line x1="524.4" y1="319.2" x2="445.2" y2="358.8" stroke="#e2e6ec" stroke-width="1.1" stroke-linecap="round"/><line x1="521.1" y1="332.3" x2="521.1" y2="373.7" stroke="rgba(226,230,236,0.5)" stroke-width="1.1" opacity="0.5" stroke-linecap="round"/><line x1="497.3" y1="344.2" x2="497.3" y2="385.6" stroke="rgba(226,230,236,0.5)" stroke-width="1.1" opacity="0.5" stroke-linecap="round"/><line x1="473.6" y1="356" x2="473.6" y2="397.4" stroke="rgba(226,230,236,0.5)" stroke-width="1.1" opacity="0.5" stroke-linecap="round"/><line x1="449.8" y1="367.9" x2="449.8" y2="409.3" stroke="#c25b57" stroke-width="1.1" opacity="0.85" stroke-linecap="round"/><polygon points="597,233 432,315.5 432,324.5 597,242" fill="#0a0d12" stroke="rgba(226,230,236,0.5)" stroke-width="1.1" stroke-linejoin="round"/><polygon points="267,233 432,315.5 432,324.5 267,242" fill="#070a0e" stroke="rgba(226,230,236,0.5)" stroke-width="1.1" stroke-linejoin="round"/><polygon points="432,150.5 597,233 432,315.5 267,233" fill="#0e1218" stroke="#e2e6ec" stroke-width="1.2" stroke-linejoin="round"/><polygon points="517.8,187.7 432,230.6 432,272.6 517.8,229.7" fill="#0a0d12" stroke="#e2e6ec" stroke-width="1.1" stroke-linejoin="round"/><polygon points="346.2,187.7 432,230.6 432,272.6 346.2,229.7" fill="#070a0e" stroke="#e2e6ec" stroke-width="1.1" stroke-linejoin="round"/><polygon points="432,144.8 517.8,187.7 432,230.6 346.2,187.7" fill="#0e1218" stroke="#e2e6ec" stroke-width="1.1" stroke-linejoin="round"/><polygon points="508.6,199 441.2,232.7 441.2,257.9 508.6,224.2" fill="rgba(123,145,187,0.06)" stroke="rgba(226,230,236,0.5)" stroke-width="1" stroke-linejoin="round"/></svg>
